<svg id="Layer_1" data-name="Layer 1" xmlns="http://www.w3.org/2000/svg" width="3.7in" height="1.11in" viewBox="0 0 266.41 80"><defs><style>.cls-1{fill:#f90;}</style></defs><path d="M56.39,8A11,11,0,0,1,67.12.49c5.35,0,8.59,3,10.7,7.75l.72-1.36A12.11,12.11,0,0,1,94.94,2L95.1,2A11.37,11.37,0,0,1,98,4.27a12.52,12.52,0,0,1,2.79,8.86V44.19c0,1.84-.46,2.3-2.42,2.3H91.62c-1.72,0-2.16-.46-2.16-2.13V16c-.17-3.07-1.43-4.6-4-4.84A5.32,5.32,0,0,0,79.42,15a26.83,26.83,0,0,0-.68,6.12V44.07c0,2.27-.29,2.56-2.62,2.56H69.56c-1.55,0-2.06-.5-2.06-2.05V19.42A22.5,22.5,0,0,0,67,14.58,4.25,4.25,0,0,0,63,11a4.64,4.64,0,0,0-5.16,2.9,17.19,17.19,0,0,0-1,5.16c-.12,7.58,0,15.18,0,22.76V44.5c0,1.43-.54,1.94-2,1.94H47.6c-1.5,0-2-.51-2-2V3.68c0-2,.39-2.42,2.42-2.42h6.32c1.55,0,2,.51,2,2V7.78Z" transform="translate(0.04 0)"/><path d="M24.43,17.92c-.17-1.84-.17-3.58-.46-5.3A4.37,4.37,0,0,0,20.53,9a6.64,6.64,0,0,0-8.37,4.14v.38c-.32,1.43-.83,1.72-2.23,1.58l-6.44-.71c-1.79-.24-2.13-.7-1.72-2.56A13.34,13.34,0,0,1,9.08,2.38a23.6,23.6,0,0,1,18.74-.83,11.29,11.29,0,0,1,7.92,11.31q.16,8.64,0,17.29a11.85,11.85,0,0,0,2.61,8c1.41,1.72,1.31,2.16-.38,3.61l-5.06,4.36c-1.14,1-1.84,1-2.91,0-1.4-1.41-2.76-3.13-4.26-4.84-.41.36-.94.82-1.43,1.3A16.34,16.34,0,0,1,9,46.63,11.23,11.23,0,0,1,.05,35.74,14.53,14.53,0,0,1,12.16,19.81C15.6,19,19,18.7,22.47,18.16,23,18,23.59,18,24.43,17.92Zm-.17,9.56v-2c0-.63-.21-1.18-1.09-1.06-1.55.19-3.17.22-4.69.56A7.58,7.58,0,0,0,12,33.47a8.62,8.62,0,0,0,.21,1,4.84,4.84,0,0,0,5.24,4.41l.21,0a5.28,5.28,0,0,0,1.81-.55,7.94,7.94,0,0,0,3.44-3.44A15.19,15.19,0,0,0,24.26,27.48Z" transform="translate(0.04 0)"/><path d="M134.11,41.24a44.75,44.75,0,0,1-3.68,3,16.07,16.07,0,0,1-15.79,1.55,10.44,10.44,0,0,1-6.22-8.6A14.53,14.53,0,0,1,119.51,20l.22,0c3.53-.85,7.26-1.19,10.82-1.72l2.11-.27a53.71,53.71,0,0,0-.78-5.91,4.39,4.39,0,0,0-3.95-3.14,6.5,6.5,0,0,0-7.85,4.8v0h0a1.72,1.72,0,0,1-1.95,1.45h0c-2.25-.29-4.5-.48-6.75-.75-1.6-.19-2-.8-1.72-2.42A13.8,13.8,0,0,1,118,1.92a24.26,24.26,0,0,1,17-.66,11.48,11.48,0,0,1,8.76,11.55q.19,8.64,0,17.29a12.16,12.16,0,0,0,2.64,8.09c1.38,1.71,1.31,2.13-.43,3.6l-5,4.31c-1.16,1-1.71,1-2.93,0a28.29,28.29,0,0,1-2.22-2.42A25.36,25.36,0,0,1,134.11,41.24ZM132.39,27.9V25.47c0-.75-.19-1-1-1a46.7,46.7,0,0,0-5.13.65A7.51,7.51,0,0,0,120,33.68c0,.22.08.44.13.66a4.84,4.84,0,0,0,5.13,4.53h.12a4.8,4.8,0,0,0,2.43-.82,9.78,9.78,0,0,0,3-3.12A12.32,12.32,0,0,0,132.39,27.9Z" transform="translate(0.04 0)"/><path d="M243.45,8.53c.7-1.26,1.33-2.42,2.13-3.68A10.59,10.59,0,0,1,256.93.59a9.68,9.68,0,0,1,8.57,7.94,31.34,31.34,0,0,1,.87,7.09V44.67c0,1.36-.53,1.89-1.93,1.92h-7.27c-1.55,0-2.06-.51-2.06-2.11V19.11a21,21,0,0,0-.48-4.48,4.32,4.32,0,0,0-3.8-3.68,4.84,4.84,0,0,0-5.16,2.42A18.13,18.13,0,0,0,244,18.43a31.75,31.75,0,0,0-.24,5.16V44.17c0,1.93-.41,2.42-2.42,2.42h-6.83c-1.5,0-2.05-.54-2.05-2V3.47c0-1.43.48-1.92,2-1.94h6.78c1.45,0,1.91.51,1.91,2v5Z" transform="translate(0.04 0)"/><path d="M189.09,23.9A29.23,29.23,0,0,1,192.53,9a17.48,17.48,0,0,1,29.59-.78c5.47,8.6,5.61,22.66,0,31.09a16.75,16.75,0,0,1-15.69,7.91,16.49,16.49,0,0,1-14.53-9.92A29.82,29.82,0,0,1,189.09,23.9Zm11.86.24H201a25.8,25.8,0,0,0,.32,5,16.35,16.35,0,0,0,1.81,7A5.09,5.09,0,0,0,210,38.14a5.32,5.32,0,0,0,1.93-1.87,11.74,11.74,0,0,0,1.5-3.73,36.22,36.22,0,0,0,.63-11.47,48.78,48.78,0,0,0-1.3-8.33,4.66,4.66,0,0,0-4.48-3.68A5.16,5.16,0,0,0,202.72,12a10.11,10.11,0,0,0-1,3.05c-.43,3-.65,6.08-1,9.11Z" transform="translate(0.04 0)"/><path class="cls-1" d="M107.72,80a101.41,101.41,0,0,1-32-5A93.19,93.19,0,0,1,50.65,62.9c-4.16-2.9-8.06-6.17-12.1-9.29-.24-.17-.53-.34-.58-.58a2,2,0,0,1,0-1.31,1.18,1.18,0,0,1,1.13-.17,19.43,19.43,0,0,1,2.28,1.26A138,138,0,0,0,67.53,64a125.37,125.37,0,0,0,25.86,5.35c6,.51,12.1,1.09,18.06,1a161.34,161.34,0,0,0,17.28-1.5,118.62,118.62,0,0,0,23.39-5.3c3.56-1.12,7-2.57,10.53-3.85a2.87,2.87,0,0,1,1.6-.32c.65.17,1.53.54,1.72,1.07a2.14,2.14,0,0,1-.68,1.91,63.87,63.87,0,0,1-5.88,4.05,87.59,87.59,0,0,1-18.35,8.23A98.74,98.74,0,0,1,115,79.8Z" transform="translate(0.04 0)"/><path d="M169.7,10.29H156c-1.52,0-2-.41-2-1.88V3c0-1.23.51-1.72,1.72-1.72h26.63c1.24,0,1.72.51,1.72,1.72v.41c0,5.33,0,5.33-3.05,9.69q-6.12,8.61-12.11,17.38l-.72,1.11c1.72.12,3.31.17,4.84.32a26.18,26.18,0,0,1,10,2.88,3,3,0,0,1,2,3v5.72c0,1.91-.94,2.22-2.42,1.5a30.84,30.84,0,0,0-27.7,0c-1.38.65-2.42.12-2.42-1.36a65.6,65.6,0,0,1,0-6.87,8.07,8.07,0,0,1,1.33-3.61c4.84-7.26,10-14.53,15-21.62A7.67,7.67,0,0,0,169.7,10.29Z" transform="translate(0.04 0)"/><path class="cls-1" d="M164.9,53.44l-10.31,1.09h-.82c-.34,0-.8-.2-.87-.41a.92.92,0,0,1,.29-.83,18.22,18.22,0,0,1,2.9-1.84,31.49,31.49,0,0,1,19.1-2.06c3.68.68,3.66,1.72,3.25,5.72a30,30,0,0,1-5.52,14.79,29.17,29.17,0,0,1-3.54,3.83c-.29.29-.89.26-1.35.38a4.05,4.05,0,0,1,0-1.3c1.35-4.14,2.78-8.28,4.09-12.42a12.76,12.76,0,0,0,.34-3.2,2.59,2.59,0,0,0-2.11-2.78A55.35,55.35,0,0,0,164.9,53.44Z" transform="translate(0.04 0)"/></svg>