<svg xmlns="http://www.w3.org/2000/svg" width="17.103" height="17.103" viewBox="0 0 17.103 17.103"><g transform="translate(0 -2.268)"><g transform="translate(0 2.268)"><path d="M117.289,51.289h-1.316A1.975,1.975,0,0,0,114,49.316V48A3.293,3.293,0,0,1,117.289,51.289Z" transform="translate(-103.475 -44.711)"/><path d="M119.921,29.921H118.6a4.61,4.61,0,0,0-4.6-4.6V24A5.927,5.927,0,0,1,119.921,29.921Z" transform="translate(-103.475 -23.342)"/><path d="M29.407,30.158l1.474-1.474a1.426,1.426,0,0,1,1.537-.316l1.795.718a1.426,1.426,0,0,1,.9,1.324v3.264a1.426,1.426,0,0,1-1.5,1.427c-12.579-.783-15.12-11.437-15.591-15.517A1.422,1.422,0,0,1,19.432,18h3.206a1.426,1.426,0,0,1,1.324.9l.718,1.795a1.426,1.426,0,0,1-.316,1.537L22.89,23.7S23.707,29.446,29.407,30.158Z" transform="translate(-18.006 -18)"/></g></g></svg>