<svg width="42" height="42" viewBox="0 0 42 42" fill="none" xmlns="http://www.w3.org/2000/svg">
<path d="M23.0305 38.8321L20.1255 32.1121C22.9255 31.0971 25.498 29.7496 27.878 28.1396L23.013 38.8321M9.88797 21.8746L3.16797 18.9871L13.8605 14.1221C12.2186 16.5307 10.8841 19.135 9.88797 21.8746ZM37.9055 4.11206C37.9055 4.11206 41.6155 12.7921 31.693 22.7496C27.843 26.5471 23.678 28.8746 19.9155 30.3446C18.6205 30.8346 17.168 30.5196 16.2055 29.5396L12.478 25.8121C11.498 24.8321 11.183 23.3971 11.6555 22.0846C13.1255 18.3746 15.453 14.1571 19.2505 10.3071C29.208 0.377558 37.9055 4.11206 37.9055 4.11206ZM10.938 38.4996H8.47047L15.628 31.3246C16.153 31.6921 16.7305 31.9546 17.3255 32.1121L10.938 38.4996ZM3.50047 38.4996V36.0321L11.848 27.6671L14.3505 30.1521L5.96797 38.4996H3.50047ZM3.50047 33.5296V31.0621L9.88797 24.6746C10.0455 25.2871 10.308 25.8646 10.6755 26.3721L3.50047 33.5296ZM28.0005 10.4996C27.0722 10.4996 26.182 10.8683 25.5256 11.5247C24.8692 12.1811 24.5005 13.0713 24.5005 13.9996C24.5005 14.9278 24.8692 15.8181 25.5256 16.4744C26.182 17.1308 27.0722 17.4996 28.0005 17.4996C29.943 17.4996 31.5005 15.9421 31.5005 13.9996C31.5005 13.0713 31.1317 12.1811 30.4753 11.5247C29.819 10.8683 28.9287 10.4996 28.0005 10.4996Z" fill="#680E12"/>
</svg>
