<svg width="42" height="42" viewBox="0 0 42 42" fill="none" xmlns="http://www.w3.org/2000/svg">
<path d="M37.625 8.98403C37.8607 9.12011 38.0614 9.30928 38.2112 9.53652C38.3609 9.76375 38.4556 10.0228 38.4878 10.293L38.5 10.4995V33.2495C38.5 33.5567 38.4191 33.8585 38.2655 34.1245C38.1119 34.3905 37.891 34.6115 37.625 34.765C37.3589 34.9186 37.0572 34.9995 36.75 34.9995C36.4428 34.9995 36.141 34.9186 35.875 34.765C33.8921 33.6201 31.6587 32.9789 29.3705 32.8978C27.0822 32.8166 24.809 33.2979 22.75 34.2995V7.74503C25.1674 6.84205 27.7546 6.48486 30.3262 6.69907C32.8979 6.91327 35.3903 7.69356 37.625 8.98403ZM19.25 7.74678L19.2518 34.3013C17.2739 33.3384 15.097 32.8552 12.8975 32.8908C10.6981 32.9264 8.53793 33.4797 6.59225 34.506L6.02 34.821L5.83975 34.898L5.754 34.926L5.5615 34.9715L5.45475 34.989L5.25 34.9995H5.1765L4.984 34.9785L4.84925 34.954L4.66025 34.898L4.43975 34.8L4.2735 34.702L4.11775 34.5848L4.01275 34.4868L3.885 34.3433L3.773 34.1875L3.7345 34.1245L3.6785 34.0195L3.6015 33.8393L3.5735 33.7535L3.528 33.561L3.5105 33.4543L3.5035 33.3685L3.5 10.4995C3.50001 10.1924 3.58087 9.89058 3.73447 9.62456C3.88806 9.35853 4.10897 9.13762 4.375 8.98403C6.60983 7.69384 9.10234 6.91386 11.674 6.69996C14.2456 6.48606 16.8327 6.84354 19.25 7.74678Z" fill="#680E12"/>
</svg>
