<svg id="Layer_1" data-name="Layer 1" xmlns="http://www.w3.org/2000/svg" width="2.17in" height="1.11in" viewBox="0 0 156 80"><defs><style>.cls-1{fill:#01bee0;}.cls-2{fill:#515454;}</style></defs><path class="cls-1" d="M.18,69a3.76,3.76,0,0,0,1.37-.65c4.17-2.38,8.34-4.76,12.51-7.18a2.48,2.48,0,0,1,1.26-.22H50.77c2.8,0,5.62,0,8.4.26A33.44,33.44,0,0,1,70.9,63.85,15.67,15.67,0,0,1,77.45,69a8.23,8.23,0,0,1,1.41,3c0,.28.21.36.48.32s.51,0,.66-.3a13.33,13.33,0,0,1,7.62-8.21,26.52,26.52,0,0,1,9.11-2.5c3.43-.34,6.87-.4,10.32-.51,4.4-.12,8.78,0,13.18,0,.44,0,.52.11.52.51V69c0,.42-.12.5-.52.5h-7.1c-4.38,0-8.78-.1-13.13-.1a41.11,41.11,0,0,0-9.71.86A12.36,12.36,0,0,0,80.63,80H78l-.28-1.18A11.15,11.15,0,0,0,70.86,71a26.79,26.79,0,0,0-7.29-1.54,72.37,72.37,0,0,0-7.93-.15c-4.53.11-9,.17-13.58.21q-10.49.14-21,.21H10.86a59.65,59.65,0,0,1-6.95-.27L.1,69.1Z" transform="translate(-0.1 0)"/><path class="cls-2" d="M156,15.24h0c-.84-.14-.84-.12-.84-1V13h0c-.27.4-.55.8-.8,1.22s-.27.27-.42,0a7.13,7.13,0,0,0-.86-1.18v1.9c0,.39-.13.42-.47.46s-.46-.11-.44-.47V12c0-.19-.15-.51.15-.51s.72-.21,1,.23.46.74.69,1.1.2.21.32,0l.53-.86a.76.76,0,0,1,.84-.51h.42Z" transform="translate(-0.1 0)"/><path class="cls-2" d="M89.59,19.26a14.15,14.15,0,0,1,1.54-1.91,10.59,10.59,0,0,1,17.14,3.81,27.08,27.08,0,0,1,1.91,10.06,32.39,32.39,0,0,1-.8,8.27,15.5,15.5,0,0,1-2.82,5.9,11.39,11.39,0,0,1-7.13,4.13,18,18,0,0,1-9.64-.59,11.27,11.27,0,0,1-7-7,16.23,16.23,0,0,1-1.22-5.71c-.14-7.29,0-14.61,0-21.9V.59c0-.46.13-.55.55-.51H89c.45-.08.45.07.45.51V18.67A1.24,1.24,0,0,0,89.59,19.26Zm12,12.63V29.47a20.93,20.93,0,0,0-.88-5.72,6.74,6.74,0,0,0-1.73-3,4.65,4.65,0,0,0-6.57.25h0a4.1,4.1,0,0,0-.46.57,13.49,13.49,0,0,0-2.08,5.72,32,32,0,0,0-.3,7A24,24,0,0,0,90.27,40a6.32,6.32,0,0,0,1.54,2.91,5.43,5.43,0,0,0,4.4,1.36,4.55,4.55,0,0,0,3.51-2.17,8.65,8.65,0,0,0,1-2.1,25.37,25.37,0,0,0,.87-8Z" transform="translate(-0.1 0)"/><path class="cls-2" d="M26.58,28l2.47-2.92,8-9.52a1,1,0,0,1,.7-.34h8.46a1,1,0,0,1,.54,0l-1.72,2q-5.16,6.16-10.46,12.26a.61.61,0,0,0,0,.88L47.68,48.72l.23.37c-.15.13-.32,0-.48,0H39a.84.84,0,0,1-.75-.4L27,32.61l-.41-.55a1,1,0,0,0,0,.59V48.57c0,.42,0,.57-.52.55H19c-.37,0-.52,0-.52-.45V.48c0-.38.12-.48.5-.48h7c.48,0,.51.17.51.59V27.47A.93.93,0,0,0,26.58,28Z" transform="translate(-0.1 0)"/><path class="cls-2" d="M114,33a27.21,27.21,0,0,1,1-8.47,13.35,13.35,0,0,1,11.68-10,17.87,17.87,0,0,1,7.62.67,12.68,12.68,0,0,1,8,7.62,23.88,23.88,0,0,1,1.64,9.75,23.36,23.36,0,0,1-1.66,9.05,13,13,0,0,1-11.43,8.23,17.19,17.19,0,0,1-7.43-.78,12.72,12.72,0,0,1-7.61-7.41A23.59,23.59,0,0,1,114,33Zm8.46-.3v.78a23.51,23.51,0,0,0,.78,6.19,5.73,5.73,0,0,0,5.22,4.67,5.46,5.46,0,0,0,5.39-2.59,11.29,11.29,0,0,0,1.28-3.81,37.2,37.2,0,0,0,.34-8.23,18.25,18.25,0,0,0-1-5.81,5.72,5.72,0,0,0-7.21-3.66l-.16.06h0a4.43,4.43,0,0,0-1,.45,6.47,6.47,0,0,0-2.86,4.06A28.33,28.33,0,0,0,122.46,32.65Z" transform="translate(-0.1 0)"/><path class="cls-2" d="M77.2,32.21a23.3,23.3,0,0,1-1.56,9.16,12.7,12.7,0,0,1-9.92,8.15A17.69,17.69,0,0,1,56.79,49a12.9,12.9,0,0,1-8.2-8.32,26.33,26.33,0,0,1-1.31-10,23.32,23.32,0,0,1,1.6-7.83,13,13,0,0,1,10.86-8.25,17.58,17.58,0,0,1,6.7.3,12.72,12.72,0,0,1,9.16,8,22.76,22.76,0,0,1,1.6,7.9Zm-8.49,0V29.43a17.7,17.7,0,0,0-1-5.72,5.38,5.38,0,0,0-3.81-3.56,5.61,5.61,0,0,0-6.84,3.3,13.15,13.15,0,0,0-.84,2.74,36,36,0,0,0-.4,7.26,23.17,23.17,0,0,0,.65,5.92,5.71,5.71,0,0,0,5.33,4.93,5.49,5.49,0,0,0,4.73-1.71,7.86,7.86,0,0,0,1.6-3.2,25.92,25.92,0,0,0,.63-7.24Z" transform="translate(-0.1 0)"/><path class="cls-1" d="M130.21,69.47H126.4c-.32,0-.43,0-.43-.42V61.28c0-.33.09-.42.4-.42h7.84c.35,0,.42.13.42.45v7.78c0,.34-.09.43-.44.43Z" transform="translate(-0.1 0)"/><path class="cls-1" d="M139.39,65.12V61.31c0-.32,0-.41.42-.41h7.89c.3,0,.38.11.38.4v7.84c0,.29,0,.38-.38.38h-7.89c-.32,0-.42-.11-.42-.42Z" transform="translate(-0.1 0)"/><path class="cls-2" d="M149.62,11.31h1.32c.44,0,.32.21.34.44s0,.4-.36.4c-.82,0-.82,0-.82.86v1.9c0,.42-.25.33-.48.33s-.47,0-.45-.34V12.55c0-.3,0-.44-.42-.4h-.27c-.32,0-.42,0-.42-.42s.13-.43.46-.42Z" transform="translate(-0.1 0)"/></svg>