<?xml version="1.0" encoding="utf-8"?>
<!-- Generator: Adobe Illustrator 25.3.0, SVG Export Plug-In . SVG Version: 6.00 Build 0)  -->
<svg version="1.1" id="Layer_1" xmlns="http://www.w3.org/2000/svg" xmlns:xlink="http://www.w3.org/1999/xlink" x="0px" y="0px"
	 viewBox="0 0 65 53" style="enable-background:new 0 0 65 53;" xml:space="preserve">
<style type="text/css">
	.st0{fill:#878787;}
</style>
<g>
	<path class="st0" d="M11.04,20.48c1.57,0.86,3.09,1.68,4.7,2.56c0.45-1.34,0.89-2.64,1.33-3.93c-1.98-1.18-2.64-3.49-1.33-5.4
		c1.09-1.59,3.25-2.01,4.9-0.98c1.78,1.12,2.15,3.15,0.94,5.37c0.9,0.98,1.81,1.96,2.77,3.01c1.8-2.51,3.58-4.99,5.38-7.51
		c-1.1-1.05-1.59-2.32-1.39-3.82c0.14-1.06,0.65-1.92,1.46-2.61c1.61-1.37,4.06-1.29,5.59,0.18c1.75,1.67,1.72,3.95-0.1,6.28
		c1.77,2.47,3.55,4.96,5.36,7.48c0.94-1.02,1.86-2.01,2.76-2.99c-1.37-2.04-0.78-4.4,1.13-5.49c1.68-0.95,3.81-0.39,4.83,1.25
		c1.11,1.77,0.57,3.76-1.45,5.21c0.21,0.63,0.42,1.29,0.64,1.94c0.22,0.65,0.45,1.3,0.69,2.01c1.59-0.87,3.12-1.7,4.5-2.46
		c0.07-0.98,0-1.88,0.22-2.7c0.53-1.97,2.62-3.23,4.61-2.9c2.11,0.35,3.61,2.12,3.58,4.25c-0.03,2.07-1.56,3.87-3.62,4.05
		c-0.83,0.07-1.04,0.41-1.23,1.13C56,29.55,54.62,34.67,53.28,39.8c-0.09,0.33-0.08,0.73,0.01,1.07c0.3,1.19,0.66,2.36,0.99,3.54
		c0.38,1.39-0.33,2.36-1.77,2.39c-1.37,0.02-2.74,0.01-4.11,0c-0.72-0.01-1.1-0.32-1.08-0.88c0.01-0.54,0.36-0.81,1.07-0.81
		c0.25,0,0.49,0,0.74,0c1.16,0,2.32,0,3.59,0c-0.38-1.34-0.73-2.6-1.09-3.88c-12.74,0-25.45,0-38.21,0
		c-0.35,1.26-0.71,2.52-1.09,3.88c0.34,0,0.58,0,0.82,0c3.9,0,7.8,0,11.71,0c0.2,0,0.41-0.01,0.61,0.02
		c0.45,0.06,0.7,0.33,0.72,0.78c0.02,0.44-0.19,0.75-0.63,0.85c-0.22,0.05-0.45,0.05-0.67,0.05c-4.05,0-8.09-0.03-12.14,0.02
		c-1.66,0.02-2.48-1.2-1.96-2.6c0.4-1.09,0.67-2.23,0.95-3.35c0.08-0.32,0.1-0.7,0.02-1.01c-1.39-5.31-2.81-10.61-4.21-15.92
		c-0.1-0.4-0.24-0.55-0.68-0.57c-2.48-0.16-4.18-2.1-4.02-4.56c0.14-2.22,2.12-3.94,4.43-3.84c2.58,0.1,4.42,2.57,3.86,5.17
		C11.1,20.23,11.07,20.32,11.04,20.48z M54.76,21.99c-0.15,0.08-0.33,0.17-0.5,0.27c-3.22,1.76-6.45,3.51-9.67,5.27
		c-0.87,0.47-1.11,0.42-1.68-0.38c-2.93-4.08-5.86-8.16-8.77-12.25c-0.24-0.34-0.45-0.48-0.9-0.38c-0.47,0.1-0.99,0.1-1.45,0.01
		c-0.43-0.08-0.65,0.02-0.9,0.36c-2.93,4.11-5.87,8.2-8.8,12.3c-0.52,0.73-0.81,0.8-1.59,0.37c-2.17-1.18-4.33-2.37-6.5-3.55
		c-1.27-0.69-2.53-1.38-3.78-2.06c-0.25,0.22-0.43,0.43-0.66,0.55c-0.47,0.24-0.51,0.54-0.38,1.04c0.86,3.15,1.68,6.31,2.51,9.46
		c0.57,2.15,1.14,4.29,1.72,6.44c12.75,0,25.47,0,38.19,0c0.06-0.21,0.11-0.38,0.16-0.56c1.28-4.83,2.52-9.67,3.87-14.48
		c0.3-1.08,0.3-1.84-0.76-2.39C54.84,22.01,54.82,22.01,54.76,21.99z M47.74,23.87c-0.37-1.11-0.78-2.13-1.05-3.19
		c-0.22-0.89-0.63-1.44-1.59-1.45c-0.17,0-0.41,0.02-0.51,0.12c-0.98,1.03-1.94,2.08-2.93,3.15c0.81,1.13,1.6,2.23,2.41,3.36
		C45.3,25.21,46.5,24.55,47.74,23.87z M23.34,22.52c-0.76-0.83-1.56-1.59-2.23-2.46c-0.57-0.74-1.17-1.03-2.04-0.65
		c-0.15,0.07-0.36,0.16-0.4,0.29c-0.48,1.38-0.94,2.76-1.41,4.18c1.24,0.68,2.44,1.33,3.67,2C21.73,24.75,22.53,23.65,23.34,22.52z
		 M4.53,19.15c0,1.38,1.09,2.5,2.46,2.52c1.36,0.03,2.54-1.14,2.56-2.51c0.01-1.35-1.12-2.5-2.48-2.5
		C5.64,16.65,4.53,17.74,4.53,19.15z M60.48,19.15c0-1.38-1.09-2.49-2.47-2.49c-1.41,0-2.55,1.12-2.54,2.51
		c0,1.38,1.18,2.53,2.55,2.51C59.38,21.66,60.47,20.54,60.48,19.15z M32.51,12.89c1.41-0.01,2.51-1.14,2.49-2.54
		c-0.02-1.37-1.17-2.5-2.52-2.47c-1.4,0.02-2.52,1.17-2.49,2.56C30.02,11.82,31.13,12.9,32.51,12.89z M20.62,15.77
		c-0.01-1.04-0.88-1.91-1.91-1.91c-1.08,0-1.94,0.88-1.93,1.96c0.01,1.08,0.85,1.9,1.97,1.91C19.76,17.74,20.63,16.83,20.62,15.77z
		 M48.22,15.77c-0.01-1.05-0.88-1.91-1.92-1.91c-1.07,0-1.94,0.88-1.92,1.96c0.01,1.03,0.86,1.9,1.86,1.91
		C47.37,17.73,48.23,16.88,48.22,15.77z"/>
	<path class="st0" d="M32.52,45.1c0.43,0,0.86-0.01,1.28,0c0.47,0.02,0.76,0.28,0.8,0.76c0.04,0.51-0.23,0.86-0.72,0.89
		c-0.89,0.05-1.79,0.05-2.68,0c-0.5-0.02-0.78-0.38-0.75-0.87c0.03-0.49,0.34-0.77,0.85-0.78C31.7,45.09,32.11,45.1,32.52,45.1
		C32.52,45.1,32.52,45.1,32.52,45.1z"/>
	<path class="st0" d="M40.97,45.1c0.43,0,0.86-0.02,1.28,0.01c0.48,0.03,0.75,0.31,0.78,0.78c0.03,0.47-0.23,0.83-0.69,0.86
		c-0.91,0.05-1.83,0.05-2.74,0.01c-0.49-0.03-0.76-0.39-0.72-0.89c0.04-0.47,0.33-0.74,0.8-0.75C40.11,45.09,40.54,45.1,40.97,45.1z
		"/>
</g>
</svg>
