<svg xmlns="http://www.w3.org/2000/svg" width="22.536" height="15.561" viewBox="0 0 22.536 15.561"><g transform="translate(-692 -52.925)"><path d="M0,7.78H0a7.78,7.78,0,0,0,7.78,7.78H22.536a10.511,10.511,0,0,1-3.3-3.143,5.049,5.049,0,0,1-.333-.69,6.047,6.047,0,0,1-.341-2.976,7.831,7.831,0,0,0,.061-.972h0A7.893,7.893,0,0,0,14.1.71,7.413,7.413,0,0,0,10.847,0H7.78A7.78,7.78,0,0,0,0,7.78Zm14.958,4a1.867,1.867,0,0,1-.864.75,2.707,2.707,0,0,1-1.318.361,5.446,5.446,0,0,1-1.856-.489,6.621,6.621,0,0,1-1.239-.588,11.963,11.963,0,0,1-3.4-3.4,6.622,6.622,0,0,1-.588-1.239A5.469,5.469,0,0,1,5.2,5.324a2.707,2.707,0,0,1,.361-1.318,1.858,1.858,0,0,1,.75-.863A3.152,3.152,0,0,1,7.3,2.924a.362.362,0,0,1,.149.021c.149.05.307.4.376.537.23.4.446.815.68,1.211.113.184.326.411.326.63,0,.432-1.282,1.062-1.282,1.445a1.526,1.526,0,0,0,.276.609,7.055,7.055,0,0,0,2.9,2.9,1.526,1.526,0,0,0,.609.276c.383,0,1.013-1.282,1.445-1.282.219,0,.446.212.63.326.4.23.807.453,1.211.68.142.071.489.23.537.376a.362.362,0,0,1,.021.149A3.151,3.151,0,0,1,14.958,11.783Z" transform="translate(692 52.925)" fill="#fff"/></g></svg>