<?xml version="1.0" encoding="utf-8"?>
<!-- Generator: Adobe Illustrator 25.3.0, SVG Export Plug-In . SVG Version: 6.00 Build 0)  -->
<svg version="1.1" id="Layer_1" xmlns="http://www.w3.org/2000/svg" xmlns:xlink="http://www.w3.org/1999/xlink" x="0px" y="0px"
	 viewBox="0 0 65 53" style="enable-background:new 0 0 65 53;" xml:space="preserve">
<style type="text/css">
	.st0{fill:#878787;}
</style>
<g>
	<path class="st0" d="M13.08,49.21c-0.48-0.29-0.61-0.72-0.61-1.27c0.01-11.34,0.01-22.68,0.01-34.02c0-1.04,0.24-1.28,1.28-1.28
		c2.99,0,5.97,0,8.96,0c0.17,0,0.35,0,0.56,0c0-0.21,0-0.37,0-0.53c0-2.39,0-4.79,0-7.18c0-0.82,0.31-1.13,1.12-1.13
		c6.21,0,12.42,0,18.63-0.01c0.51,0,0.89,0.16,1.25,0.52c2.58,2.6,5.18,5.19,7.78,7.78c0.33,0.33,0.48,0.69,0.48,1.14
		c-0.01,2.45,0,4.91,0,7.36c0,0.03,0,0.06,0,0.09c-0.02,0.61-0.38,1.01-0.9,1.01c-0.52,0-0.88-0.4-0.88-1.01c-0.01-2.1,0-4.2,0-6.3
		c0-0.17,0-0.35,0-0.56c-0.21,0-0.37,0-0.53,0c-2.2,0-4.41,0-6.61,0c-0.8,0-1.1-0.3-1.1-1.09c0-2.19,0-4.38,0-6.56
		c0-0.18,0-0.35,0-0.56c-5.82,0-11.61,0-17.42,0c0,2.33,0,4.66,0,7.04c0.17,0,0.33,0,0.49,0c2.17,0,4.35,0.01,6.52-0.01
		c0.6-0.01,1.06,0.16,1.49,0.6c1.41,1.46,2.86,2.87,4.28,4.31c0.21,0.22,0.43,0.31,0.73,0.31c2.39-0.01,4.79-0.01,7.18,0
		c0.19,0,0.39,0,0.57,0.04c0.41,0.08,0.7,0.45,0.69,0.86c0,0.42-0.29,0.77-0.71,0.85c-0.17,0.03-0.35,0.04-0.53,0.04
		c-1.74,0-3.49,0-5.23,0c-0.16,0-0.32,0-0.6,0c0.39,0.39,0.66,0.73,1,1c0.61,0.49,0.85,1.1,0.76,1.87c-0.03,0.22,0,0.44,0,0.71
		c0.21,0,0.38,0,0.55,0c1.26,0,2.51,0,3.77,0c0.61,0,1,0.36,1,0.89c0,0.52-0.41,0.88-1.01,0.88c-1.42,0.01-2.83,0-4.28,0
		c0,1.19,0,2.35,0,3.57c0.16,0,0.32,0,0.47,0c1.26,0,2.51,0,3.77,0c0.64,0,1.05,0.36,1.05,0.89c0,0.54-0.4,0.88-1.05,0.88
		c-1.4,0-2.8,0-4.24,0c0,2.76,0,5.48,0,8.23c2.98,0,5.96,0,8.99,0c0-0.2,0-0.37,0-0.54c0-2.94,0-5.88,0-8.83
		c0-0.18,0-0.36,0.02-0.53c0.05-0.4,0.36-0.7,0.76-0.74c0.42-0.04,0.81,0.19,0.93,0.59c0.06,0.19,0.07,0.41,0.07,0.61
		c0,3.34,0,6.68,0,10.02c0,0.95-0.27,1.22-1.21,1.22c-3,0-6,0-9,0c-0.18,0-0.35,0-0.59,0c0,0.19,0,0.34,0,0.5
		c0,2.38-0.01,4.76,0.01,7.14c0.01,0.54-0.16,0.94-0.63,1.21C31.76,49.21,22.42,49.21,13.08,49.21z M31.7,14.45
		c-5.84,0-11.62,0-17.41,0c0,11.01,0,21.98,0,32.95c8.57,0,17.1,0,25.62,0c0-8.26,0-16.48,0-24.73c-0.7,0-1.36,0-2.03,0
		c-1.7,0-3.4,0-5.1,0c-0.74,0-1.08-0.33-1.08-1.04c0-0.55,0-1.09,0-1.64C31.7,18.15,31.7,16.32,31.7,14.45z M33.5,20.85
		c1.7,0,3.39,0,4.96,0c-1.65-1.65-3.33-3.33-4.96-4.96C33.5,17.47,33.5,19.15,33.5,20.85z M44.3,12.02c1.72,0,3.4,0,4.99,0
		c-1.65-1.65-3.33-3.33-4.99-4.99C44.3,8.64,44.3,10.32,44.3,12.02z"/>
	<path class="st0" d="M50.76,24.76c0.01-0.49,0.39-0.86,0.89-0.85c0.49,0.01,0.87,0.4,0.87,0.87c0,0.49-0.43,0.9-0.92,0.88
		C51.11,25.65,50.75,25.25,50.76,24.76z"/>
	<path class="st0" d="M27.14,27.04c2.6,0,5.2,0,7.8,0c0.73,0,1.21,0.59,0.92,1.18c-0.12,0.25-0.46,0.4-0.71,0.58
		c-0.07,0.05-0.2,0.01-0.31,0.01c-5.15,0-10.31,0-15.46,0c-0.1,0-0.21,0-0.31-0.01c-0.48-0.06-0.8-0.43-0.79-0.91
		c0.01-0.45,0.34-0.82,0.8-0.85c0.38-0.03,0.77-0.01,1.15-0.01C22.54,27.04,24.84,27.04,27.14,27.04z"/>
	<path class="st0" d="M27.1,34.15c-2.53,0-5.06,0-7.58,0c-0.16,0-0.33,0.01-0.49-0.01c-0.4-0.05-0.7-0.36-0.74-0.76
		c-0.04-0.41,0.17-0.79,0.55-0.92c0.16-0.06,0.35-0.08,0.52-0.08c5.16,0,10.32,0,15.48,0c0.17,0,0.36,0.02,0.52,0.07
		c0.38,0.12,0.62,0.52,0.58,0.9c-0.04,0.42-0.36,0.74-0.77,0.79c-0.16,0.02-0.32,0.01-0.49,0.01C32.15,34.15,29.62,34.15,27.1,34.15
		z"/>
	<path class="st0" d="M27.09,37.75c2.53,0,5.06,0,7.58,0c0.16,0,0.33-0.01,0.49,0.01c0.42,0.05,0.73,0.37,0.78,0.79
		c0.04,0.4-0.22,0.8-0.62,0.91c-0.17,0.05-0.35,0.06-0.52,0.06c-5.13,0-10.26,0-15.39,0c-0.19,0-0.39-0.02-0.57-0.07
		c-0.38-0.13-0.59-0.5-0.55-0.91c0.04-0.4,0.33-0.72,0.74-0.77c0.16-0.02,0.32-0.02,0.49-0.02C22.04,37.75,24.56,37.75,27.09,37.75z
		"/>
</g>
</svg>
