<svg id="Layer_1" data-name="Layer 1" xmlns="http://www.w3.org/2000/svg" width="3.19in" height="1.11in" viewBox="0 0 229.59 80"><defs><style>.cls-1{fill:#f9a829;}.cls-2{fill:#050505;}.cls-3{fill:#fff;}</style></defs><path class="cls-1" d="M83.75,17.32A17.13,17.13,0,0,0,66.84,0h-50A17,17,0,0,0,.12,16.84V63.29A15.68,15.68,0,0,0,7.44,76.37c4.73,3.25,10.15,3.56,15.61,3.56,8.89.15,17.89,0,26.86,0a168.92,168.92,0,0,0,17.86-.46A18.14,18.14,0,0,0,83.85,61.85C83.66,47,83.83,32.19,83.75,17.32ZM40.92,62.17C35.08,52.28,23.76,52.1,16.36,57.1c-.77.52-1.56,1.11-2.48.71s-.63-1.56-.63-2.42V26a5.33,5.33,0,0,1,1.49-4.17c5.44-5.06,18.76-6.25,24.2.46A8,8,0,0,1,41,27.62C40.88,38.9,40.92,50.22,40.92,62.17Zm29.42-6.26c0,2.3-.61,2.53-2.88,1.15A18.76,18.76,0,0,0,50.78,55c-3.83,1.4-6,4.3-8.13,8.34V32a33.58,33.58,0,0,1,.52-5.92,10.26,10.26,0,0,1,7.63-7.65,21.12,21.12,0,0,1,16.68,1.9,5,5,0,0,1,3,4.79V55.91Z" transform="translate(-0.12 0)"/><path class="cls-2" d="M111.43,58.77c3.88.62,6.63,2.27,7.78,5.75a7.39,7.39,0,0,1-2,7.68,13.2,13.2,0,0,1-9.38,3.25c-4.78.21-9.57,0-14.37,0-1.27,0-1.69-.34-1.69-1.65V45.24c0-1.21.21-1.75,1.61-1.71,5.23,0,10.42,0,15.7.12a7.93,7.93,0,0,1,8.37,7.45,8.94,8.94,0,0,1,0,1.27C117.17,55.91,114.52,57.16,111.43,58.77Zm-7.54,2.29c-6.09,0-6.09,0-6.09,5.63v3.5c0,.67,0,1.3.91,1.23,3.88-.2,7.82.67,11.56-.62a4.59,4.59,0,0,0,3.33-4.69,4.7,4.7,0,0,0-3.38-4.44,18.82,18.82,0,0,0-6.33-.69ZM97.8,52.37v3.5c0,.73,0,1.48,1,1.48a30.49,30.49,0,0,0,9.71-.67A4.43,4.43,0,0,0,112,52.39a4.17,4.17,0,0,0-3.48-4.17,17.86,17.86,0,0,0-5.92-.42c-4.79,0-4.79,0-4.79,4.67Z" transform="translate(-0.12 0)"/><path class="cls-2" d="M133.55,33.6c0,3.09-.16,6,0,8.95s-1.48,2-3,2.08-2.6,0-2.58-2.19c.14-8.88,0-17.61,0-26.43,0-1.65,0-2.78,2.23-2.48,1.48.21,3.69-.63,3.13,2.33a3.31,3.31,0,0,0,.14,1,11.77,11.77,0,0,1,10.18-3.58,10.4,10.4,0,0,1,7.08,3.42c3.95,4.6,3.76,13.24-.27,17.41S139.68,38.34,133.55,33.6Zm14.2-8.34c0-5-2.6-8-7-8s-7,3.23-7.18,7.84,2.71,8,7,8.09,7.13-2.82,7.17-7.88Z" transform="translate(-0.12 0)"/><path class="cls-2" d="M163.49,16.92c5.69-4.83,12.39-4.92,16.68-.47a13.46,13.46,0,0,1,.52,17.3c-4.17,4.75-11.11,4.8-17.18-.17,0,3.28-.1,6.26,0,9.28s-2.08,1.48-3.19,1.75-2.46,0-2.41-2.08c.12-9,0-18,0-27,0-1.63.31-2.44,2.08-2.09,1.33.32,3.79-1.14,3.4,2.09A9.85,9.85,0,0,0,163.49,16.92Zm14.12,8.49c0-5-2.57-8.09-6.9-8.09a7.07,7.07,0,0,0-7.26,6.88,6.66,6.66,0,0,0,0,.77c0,5,2.63,8.11,6.94,8.2S177.59,30.37,177.61,25.41Z" transform="translate(-0.12 0)"/><path class="cls-2" d="M91.69,36.65c4.34-10.2,8.51-20.1,12.67-30a2.42,2.42,0,0,1,3-1.69h0c1.64.25,3.6-.88,4.65,1.75,3.89,9.61,8,19.22,12.11,28.85.19.42.46.82,0,1.19-1,.92-5.92-.21-6.38-1.48-.86-2.37-1.06-5.69-2.94-6.71s-5.28-.33-8-.33c-6.13,0-6.13,0-7.93,5.27C97.69,37.17,97.69,37.17,91.69,36.65Zm16.47-26.54c-2.09,5-3.75,9.42-5.57,14h11Z" transform="translate(-0.12 0)"/><path class="cls-2" d="M188.43,62.17a70.89,70.89,0,0,0,7.67-6.92c2.52-3.11,5.61-3.11,9.24-2.71a62.57,62.57,0,0,1-7.78,7.31c-2.54,2.44-2.79,2.5-.4,5.19,3,3.34,5.93,6.72,9.51,10.66-3.56-.38-6.61,1-8.9-2.48A44.13,44.13,0,0,0,192.29,67c-.53-.58-.94-1.85-2.09-1.16s-1.9,1-1.81,2.43c.12,1.88,0,3.8,0,5.7,0,1.18-.19,1.71-1.61,1.75-3.94.12-3.94.21-3.94-3.73,0-8.66.15-17.29,0-25.92,0-2.77,1.48-2.08,3-2.27s2.77,0,2.67,2.29C188.28,51.16,188.43,56.37,188.43,62.17Z" transform="translate(-0.12 0)"/><path class="cls-2" d="M222.33,30.27c-1.23,5.63-8.88,8-14.72,6.8-7.28-1.49-10.8-7.14-9.4-14.6a12.21,12.21,0,0,1,14.38-9c6.74,1.21,10.3,5.3,10.16,11.41,0,1.48-.42,1.83-1.84,1.81H205.73c-2.54,0-2.44,1.06-1.73,2.75a7.5,7.5,0,0,0,9.93,3.75,7.29,7.29,0,0,0,1.62-1C217.7,29.87,219.83,30.25,222.33,30.27ZM210.4,23.33h5.15c1.71,0,1.88-.82,1.38-2.09a7,7,0,0,0-13,.44c-.4,1.12-.21,1.67,1.1,1.62h5.4Z" transform="translate(-0.12 0)"/><path class="cls-2" d="M178.19,64c.31,6.9-4.17,12-12.74,12-7.59,0-12.69-3.82-12.82-12.28-.1-7.3,5-11.7,13-11.84C172.6,51.66,178.78,56.45,178.19,64ZM165.37,71.9c4.59,0,7.28-3,7.28-8s-2.86-8.22-7.22-8.18a7.34,7.34,0,0,0-7.3,7.38,6.2,6.2,0,0,0,.07,1C158.43,68.4,160.76,72.13,165.37,71.9Z" transform="translate(-0.12 0)"/><path class="cls-2" d="M136,51.81c5,0,9.49,1.48,11.55,6.25A12.67,12.67,0,0,1,145.94,72c-3,3.62-9.84,5-15.45,3.08a10.69,10.69,0,0,1-7.24-10.78C123.13,56.25,127.63,51.81,136,51.81Zm6.94,12c0-5.15-2.46-8.11-6.83-8.2s-7.41,3.25-7.41,8.11,2.78,8.11,7.3,8.11,6.94-2.75,6.94-8Z" transform="translate(-0.12 0)"/><path class="cls-2" d="M207.23,68.63h3.15a2.7,2.7,0,0,1,3,1.48c1.59,2.73,7.3,3.11,9.72.94,1.67-1.48,1.31-3.09-.92-4.17a77,77,0,0,0-8.34-2.09A10.28,10.28,0,0,1,210,62.92a5.72,5.72,0,0,1-.78-7.92c3.92-4.59,14.45-4.45,18.29.22.85,1.05,2.08,2.74.75,3.36a3.84,3.84,0,0,1-4.9-.62,6.82,6.82,0,0,0-7.86-2.19,2.92,2.92,0,0,0-2.08,2.52,2.53,2.53,0,0,0,2.08,2.54c2.42.71,4.86,1.17,7.32,1.71,4.65,1,6.84,3,6.9,5.92s-2.34,5.88-6.65,7a16.71,16.71,0,0,1-11.34-.79A6.91,6.91,0,0,1,207.23,68.63Z" transform="translate(-0.12 0)"/><path class="cls-2" d="M193.39,21.05v14c0,2.42-1.48,1.76-2.67,1.67s-3,1-3-1.67V6.48c0-1.31.44-1.58,1.69-1.61,3.84,0,3.84-.14,3.84,3.78Z" transform="translate(-0.12 0)"/><path class="cls-3" d="M70.4,25.16V55.93c0,2.3-.6,2.53-2.88,1.15A18.54,18.54,0,0,0,50.72,55c-3.84,1.39-6,4.29-8.11,8.33V32.06a33.58,33.58,0,0,1,.52-5.92,10.24,10.24,0,0,1,7.63-7.65,21.12,21.12,0,0,1,16.68,1.9A5.12,5.12,0,0,1,70.4,25.16Z" transform="translate(-0.12 0)"/><path class="cls-3" d="M40.92,62.17C35.08,52.28,23.76,52.1,16.36,57.1c-.77.52-1.56,1.11-2.48.71s-.63-1.56-.63-2.42V26a5.33,5.33,0,0,1,1.49-4.17c5.44-5.06,18.76-6.25,24.2.46A8,8,0,0,1,41,27.62C40.88,38.9,40.92,50.22,40.92,62.17Z" transform="translate(-0.12 0)"/></svg>