<svg id="Layer_1" data-name="Layer 1" xmlns="http://www.w3.org/2000/svg" width="1.91in" height="1.11in" viewBox="0 0 137.51 80"><defs><style>.cls-1{fill:#143117;}.cls-2{fill:#cd6c01;}</style></defs><path class="cls-1" d="M48.18,78.6c-1-3.24-1.91-6.47-2.82-9.69s-1.78-6.4-2.6-9.28c0,6.09.15,12.5.25,19H36.79V40.93h4.12c.63,0,1.41-.19,1.91.12s.4,1.08.55,1.67q2.09,7.74,4.09,15.46a7.72,7.72,0,0,0,.38,1.24V41h5.82V78.6Z" transform="translate(0.06 0.04)"/><path class="cls-1" d="M80.2,19.44v18.8h-6V.63h6q2.51,9.14,5,18.41V.65h5.72V38.26H85.51Z" transform="translate(0.06 0.04)"/><path class="cls-1" d="M63,19c.51.29.95.52,1.33.77a6.92,6.92,0,0,1,2.81,5.32c.23,2.1.27,4.27.38,6.41s.23,4.51.36,6.8H61.27c-.13-1.4-.34-2.81-.38-4.24V27.76a11.18,11.18,0,0,0-.61-3.28,3.19,3.19,0,0,0-3-2.4V38.24H50.53V.59H59.9c5.13,0,7.63,2.06,8.38,7.14A15.27,15.27,0,0,1,68,14,6.22,6.22,0,0,1,63,19ZM57.3,16.28h1.91c1.22,0,1.91-.44,2.08-1.63a17.54,17.54,0,0,0-.17-7.73,2.08,2.08,0,0,0-1.6-1.6,18.4,18.4,0,0,0-2.22-.15Z" transform="translate(0.06 0.04)"/><path class="cls-1" d="M81.69,41c3.32,0,6.57-.17,9.77,0A6.42,6.42,0,0,1,98,47,18.84,18.84,0,0,1,98.1,54a5.2,5.2,0,0,1-2.29,3.82,11.75,11.75,0,0,1-1.45.63c3.27.89,4.32,3.43,4.81,6.35a18.16,18.16,0,0,1-.3,7.83A7.18,7.18,0,0,1,92,78.39c-3.38.21-6.78.12-10.16.15a.25.25,0,0,1-.17,0Zm6.49,33.28h1.57a2.05,2.05,0,0,0,2.37-1.68.91.91,0,0,0,0-.23,26.62,26.62,0,0,0,0-9.08c-.5-2.25-1.62-2.67-4-2.25Zm0-18.07h1.18c1.55,0,2.22-.48,2.43-1.91a21.15,21.15,0,0,0,0-6.83A2.48,2.48,0,0,0,89,45.32a2.29,2.29,0,0,0-.77.23Z" transform="translate(0.06 0.04)"/><path class="cls-1" d="M8.07,38.13V.7h.15c3.21,0,6.39,0,9.54.14a6.09,6.09,0,0,1,6,4.84,17.57,17.57,0,0,1,.19,8.82,4.4,4.4,0,0,1-3.3,3.61s-.1,0-.19.17c3,.78,4.08,3,4.63,5.72a17.75,17.75,0,0,1-.19,8.63,7,7,0,0,1-6.62,5.5C14.86,38.34,11.5,38.13,8.07,38.13Zm6.09-4.24h1.16c1.91,0,2.48-.38,2.77-2.25a26.34,26.34,0,0,0,0-8.59c-.42-2.46-1.53-2.81-4-2.4Zm0-18h1.16c1.55,0,2.21-.4,2.37-1.91a48.33,48.33,0,0,0,.15-5.38,8.3,8.3,0,0,0-.44-2.27A1.9,1.9,0,0,0,15.72,5H14.18Z" transform="translate(0.06 0.04)"/><path class="cls-1" d="M76.6,59.73a69.34,69.34,0,0,1-1,12.29,18.25,18.25,0,0,1-1.24,3.81,5.75,5.75,0,0,1-4.74,3.46,20,20,0,0,1-3.28,0,6.26,6.26,0,0,1-5.72-4.6,30.41,30.41,0,0,1-1.47-8.45,101.47,101.47,0,0,1,0-13.73A28.56,28.56,0,0,1,60.43,45a6.07,6.07,0,0,1,5.73-4.62,19.55,19.55,0,0,1,4.65.26,5.45,5.45,0,0,1,4,3.67,21.25,21.25,0,0,1,1.43,6.81C76.39,54,76.39,56.88,76.6,59.73Zm-10.79,0h0V70.57a21.94,21.94,0,0,0,.42,3.62c.12.79.71,1,1.46,1A1.23,1.23,0,0,0,69,74.12c.12-.63.21-1.28.27-1.91.4-7.75.36-15.52.11-23.3A23.55,23.55,0,0,0,69,45.36a1.28,1.28,0,0,0-1.29-1.17,1.41,1.41,0,0,0-1.46,1.11,2.32,2.32,0,0,0-.15.63c-.11,1.07-.27,2.12-.28,3.19,0,3.57,0,7.14,0,10.67Z" transform="translate(0.06 0.04)"/><path class="cls-1" d="M33.51.34h6c.17,0,.46.31.51.52.59,3.55,1.19,7.1,1.78,10.59q1.77,10.49,3.6,21l1,5.72H39.46c-.23-1.9-.46-3.95-.69-5.95H34.56l-.71,5.95H28Q30.78,19.37,33.51.34Zm4.88,27.71c-.61-5.73-1.24-11.32-1.91-17.18-.51,5.84-1,11.45-1.56,17.18Z" transform="translate(0.06 0.04)"/><path class="cls-2" d="M19.63,70.57c.25-.48.42-.82.58-1.17.89-1.9,1.77-4,2.67-6a6.66,6.66,0,0,1,4.58-4.29A5.05,5.05,0,0,1,32,60,3.51,3.51,0,0,1,33,63.81a2.06,2.06,0,0,1-1.51,1.36,1.47,1.47,0,0,1-1.88-.89l0-.09v-.26c-.13-.61-.17-1.22-.32-1.78a1.52,1.52,0,0,0-1.69-1.34h-.05a2.18,2.18,0,0,0-.44.11,3.44,3.44,0,0,0-2,1.78c-1,2.06-2,4.14-3,6.22-.4.87-.8,1.77-1.16,2.65a1.16,1.16,0,0,0,0,.82,11,11,0,0,0,3.38,4.12,3.43,3.43,0,0,0,4.43,0,20.93,20.93,0,0,0,1.77-1.37c.84.8.9.88,0,1.7a8.14,8.14,0,0,1-5.25,2.88,5,5,0,0,1-3.32-.88c-.93-.69-1.81-1.41-2.67-2.18-.38-.34-.69-.74-1.07-1.14a2.42,2.42,0,0,0-.42.29A11.34,11.34,0,0,1,9.6,80c-3.82.11-7.83-1.36-9.11-5.73A11.45,11.45,0,0,1,3.15,62.78a49.16,49.16,0,0,1,5-4.25.88.88,0,0,0,.38-1.18h0a22.25,22.25,0,0,1-1.11-8.87,11.46,11.46,0,0,1,9.28-9.64,9.14,9.14,0,0,1,5.22.52,5.71,5.71,0,0,1,3.46,5.15,9.54,9.54,0,0,1-4.29,8.59A82.12,82.12,0,0,1,14,57.48c-.61.36-.75.63-.46,1.29a100.59,100.59,0,0,0,6,11.45A.71.71,0,0,0,19.63,70.57ZM9.46,60.68l-.3.19a14.86,14.86,0,0,0-4.91,8.57,6.69,6.69,0,0,0,3.44,7.48,7.61,7.61,0,0,0,8.87-1.7c.4-.45.52-.74.12-1.29A62.78,62.78,0,0,1,10,61.81a10.72,10.72,0,0,0-.54-1.07Zm2.92-4.6.55-.24c1.91-1.19,3.73-2.33,5.52-3.55a8.18,8.18,0,0,0,3.82-6.38,4,4,0,0,0-2.52-4.25,6.08,6.08,0,0,0-7,2.84,9.74,9.74,0,0,0-1.24,4.6,18.88,18.88,0,0,0,.88,7ZM20.3,75.61l.15-.1-.63-.9a74.47,74.47,0,0,1-7.53-14.33,27.23,27.23,0,0,1-2-12.61,11.94,11.94,0,0,1,.15-1.34h-.19c-.15.42-.34.88-.45,1.28a17.93,17.93,0,0,0,.51,10.48,53.89,53.89,0,0,0,9.1,16.68Z" transform="translate(0.06 0.04)"/><path class="cls-1" d="M125.72,11.41c0-1.91-.14-3.82-.27-5.59a1.73,1.73,0,0,0-1-1.59,1.61,1.61,0,0,0-2.14.67h0a1.45,1.45,0,0,0-.17.57,8.48,8.48,0,0,0,.95,6.63c1.38,2,3,4,4.43,6a46.63,46.63,0,0,1,4.2,6.3,11.78,11.78,0,0,1-.67,11.08,6.49,6.49,0,0,1-6.2,3.55,19.69,19.69,0,0,1-2.77-.13,6.92,6.92,0,0,1-5.72-5.44,16.88,16.88,0,0,1-.23-7,.74.74,0,0,1,.72-.76h0a.19.19,0,0,1,.15,0h5.16c0,1-.21,1.9-.19,2.92a30.52,30.52,0,0,0,.19,4.27,1.79,1.79,0,0,0,1.91,1.66h.19c.95,0,1.54-.48,1.77-1.66a10.28,10.28,0,0,0-1.91-9.1c-1.64-2.12-3.37-4.18-5-6.32a17.55,17.55,0,0,1-3.36-6.66,10.43,10.43,0,0,1,1.11-7.63,6.48,6.48,0,0,1,5.5-3.06,9.06,9.06,0,0,1,6.22,1.28,7.09,7.09,0,0,1,2.82,5.08,9.91,9.91,0,0,1-.21,4.43c0,.21-.28.53-.46.53C129.06,11.41,127.32,11.41,125.72,11.41Z" transform="translate(0.06 0.04)"/><path class="cls-1" d="M97.21.63h13.68V6.2h-7.16v9.54c0,.59.14.8.77.78h5.55v5.19h-6.26v11h8.11V38.3H97.21Z" transform="translate(0.06 0.04)"/><path class="cls-1" d="M136.61,41v5.55h-7.09V56.79h6.31v5.15h-6.31V73h7.93v5.59H122.93V41Z" transform="translate(0.06 0.04)"/><path class="cls-1" d="M104.34,41h6.8V73h8V78.6H104.34Z" transform="translate(0.06 0.04)"/></svg>