<svg id="Layer_1" data-name="Layer 1" xmlns="http://www.w3.org/2000/svg" width="3.43in" height="1.11in" viewBox="0 0 246.94 80"><defs><style>.cls-1{fill:#0e60a2;}.cls-2{fill:#767676;}.cls-3{fill:#009aef;}.cls-4{fill:#38cff4;}.cls-5{fill:#3ed9fd;}.cls-6{fill:#fefefe;}</style></defs><path class="cls-1" d="M11.26,77.07a41.89,41.89,0,0,1-4.17,2.25,4.49,4.49,0,0,1-6.89-4C0,72.65,0,69.91,0,67.18V6.81A9.73,9.73,0,0,1,.76,2.32,4.29,4.29,0,0,1,5.25.07,14.47,14.47,0,0,1,9.58,2c3,1.68,6,3.41,9,5.14L25,10.8a8.1,8.1,0,0,1-2.69,0H11.84c-.49,0-.49,0-.74.32a29.52,29.52,0,0,0,0,4V76.35C11,76.6,10.88,76.89,11.26,77.07Z" transform="translate(-0.01 -0.02)"/><path class="cls-2" d="M111.44,20.14h4.76c.49,0,.76.13.83.69a10.57,10.57,0,0,1-8.77,12.11l-.21,0a12.38,12.38,0,0,1-13.24-6.89,12,12,0,0,1,18.11-14.49c1.24.9,1.26.9.16,1.95-.43.43-.79,1.19-1.35,1.19s-.92-.7-1.43-1a8.67,8.67,0,0,0-8.75,15,8.84,8.84,0,0,0,3,1.07A7.91,7.91,0,0,0,112.34,27a7.16,7.16,0,0,0,1.3-2.76c.13-.56,0-.77-.67-.77h-6.38c-.51,0-.69,0-.65-.62,0-.44,0-.87,0-1.31,0-1.34,0-1.34,1.37-1.34Z" transform="translate(-0.01 -0.02)"/><path class="cls-2" d="M163.46,31.38a5.59,5.59,0,0,1-3.66,1.73,7.51,7.51,0,0,1-7.6-5.52,7.7,7.7,0,0,1,4-9,5.9,5.9,0,0,1,7.14.88h0c0-1.08,0-1.08,1.14-1.08,2.09,0,2.09,0,2.09,2.06V32.14a9,9,0,0,1-1.05,4.69A6.75,6.75,0,0,1,159.2,40a7.23,7.23,0,0,1-6.29-3.75c-.36-.58-.31-.92.38-1.1l.3-.11c.58-.25,1.19-.7,1.72-.65s.68.89,1.1,1.3a4.16,4.16,0,0,0,4.49,1A3.84,3.84,0,0,0,163.42,33,12.25,12.25,0,0,0,163.46,31.38Zm.23-5.81v-1A4.2,4.2,0,0,0,161,21.06a3.88,3.88,0,0,0-4.13.9,5,5,0,0,0-.81,6,4.15,4.15,0,0,0,4.13,2.24A4.36,4.36,0,0,0,163.69,25.57Z" transform="translate(-0.01 -0.02)"/><path class="cls-3" d="M105.79,58.36A5,5,0,0,1,109.22,63a5.92,5.92,0,0,1-5.3,6c-2.85.23-5.7,0-8.55,0-.51,0-.4-.29-.4-.56V49c0-.7.18-.88.85-.85h6.73a5.7,5.7,0,0,1,6,5.44V54a4.52,4.52,0,0,1-2.24,3.89l-.34.22A.38.38,0,0,0,105.79,58.36Zm-8.15,4.69V65.9c0,.4,0,.63.56.63h4.94a3.44,3.44,0,0,0,3.34-3.39,3.37,3.37,0,0,0-3.21-3.44H98.15c-.42,0-.58.14-.56.56C97.66,61.14,97.64,62.1,97.64,63.05Zm0-9.09v2.69c0,.43.13.56.56.56h4.31A3.25,3.25,0,0,0,105.83,54v-.12a3.18,3.18,0,0,0-3.24-3.13H98.33c-.51,0-.74,0-.69.65S97.64,53.11,97.64,54Z" transform="translate(-0.01 -0.02)"/><path class="cls-2" d="M195.53,21.46V11.16c0-1,0-1.05,1.08-1.05H204a7,7,0,1,1-.12,14h-4.33c-.54,0-.67.18-.67.69V32c0,.52-.14.72-.67.7s-1.46,0-2.25,0-.54,0-.54-.56V21.46ZM198.94,17h0v3.32c0,.39,0,.68.61.66h4.31a3.89,3.89,0,0,0-.27-7.77h-3.84c-.67,0-.83.23-.81.85,0,1,0,2,0,3Z" transform="translate(-0.01 -0.02)"/><path class="cls-2" d="M228,31a5,5,0,0,1-4.49,2.11,5.17,5.17,0,0,1-5.43-4.89V28a4.87,4.87,0,0,1,3.36-4.29,8.07,8.07,0,0,1,6.53.18,1.81,1.81,0,0,0-.49-1.79A3.93,3.93,0,0,0,222,21.8l-.24.25a.43.43,0,0,1-.58.17l0,0a22.67,22.67,0,0,0-2.11-.85c-.71-.22-.4-.38-.22-.72a5.81,5.81,0,0,1,4.49-2.85A7.75,7.75,0,0,1,229,19a5.36,5.36,0,0,1,2.38,4.49v8.59c0,.57-.21.63-.66.61-.62,0-1.25,0-1.88,0s-.79-.18-.72-.74A1.24,1.24,0,0,0,228,31Zm-3.86-.85a4.26,4.26,0,0,0,4-3.06c0-.31,0-.6-.34-.76a6.12,6.12,0,0,0-4.89,0,2,2,0,0,0-1.33,1.8,1.67,1.67,0,0,0,.95,1.66A4.71,4.71,0,0,0,224.17,30.15Z" transform="translate(-0.01 -0.02)"/><path class="cls-2" d="M125.89,33.24a7.53,7.53,0,0,1-7.65-7.42v-.36a7.72,7.72,0,1,1,15.44.29h0a7.55,7.55,0,0,1-7.58,7.5Zm-4.26-7.67a4.35,4.35,0,0,0,8.68.62,3.21,3.21,0,0,0,0-.62,4.35,4.35,0,1,0-8.68-.63A3.32,3.32,0,0,0,121.63,25.57Z" transform="translate(-0.01 -0.02)"/><path class="cls-2" d="M142.77,33.24a7.68,7.68,0,1,1,0-15.35h0a7.68,7.68,0,1,1,0,15.35Zm0-12.29a4.35,4.35,0,0,0-4.31,4.39v.09a4.36,4.36,0,0,0,8.68.75c0-.2,0-.41,0-.61a4.49,4.49,0,0,0-4.24-4.73h-.14Z" transform="translate(-0.01 -0.02)"/><path class="cls-2" d="M181.32,33.24a7.62,7.62,0,0,1-7.42-7.82,7.52,7.52,0,0,1,.69-3,7,7,0,0,1,8.95-4.09,7.16,7.16,0,0,1,2.27,1.39,9.41,9.41,0,0,1,2.25,3.48c.22.59-.18.61-.47.72l-6.74,2.76-2.4,1c-.47.18-.47.38-.2.78a4.17,4.17,0,0,0,5.81,1,4.23,4.23,0,0,0,.68-.59c.6-.67,1-.78,1.66-.18a3,3,0,0,0,.67.45c1.08.72,1.1.74.2,1.66A7.67,7.67,0,0,1,181.32,33.24Zm.21-12.38a4.28,4.28,0,0,0-4.2,3.7c0,.49,0,.67.58.45,1.93-.81,3.84-1.62,5.79-2.38.52-.23.5-.47.18-.81a3.41,3.41,0,0,0-2.35-1.08Z" transform="translate(-0.01 -0.02)"/><path class="cls-1" d="M71.85,40.13a4.52,4.52,0,0,1-2.08,3.55,44.23,44.23,0,0,1-4.49,2.67c-1.33.79-2.65,1.53-4,2.24-.42-.15-.24-.53-.24-.85V33.87c.18-.87-.14-1.79.22-2.65C64,32.8,66.85,34.34,69.56,36A4.49,4.49,0,0,1,71.85,40.13Z" transform="translate(-0.01 -0.02)"/><path class="cls-2" d="M234.29,39.53c.87-1.93,1.55-3.77,2.49-5.46a4.24,4.24,0,0,0,0-4.3c-1.75-3.66-3.3-7.43-4.94-11.23a2,2,0,0,1,0-.35h3.21c.49,0,.54.4.65.69,1.12,2.74,2.25,5.48,3.35,8.21.11.25.24.48.4.79A7.62,7.62,0,0,0,240.3,26c1-2.4,1.91-4.83,2.85-7.25a.76.76,0,0,1,.9-.58,20.92,20.92,0,0,0,2.24,0c.7,0,.79.15.52.76-1,2.13-1.88,4.26-2.8,6.39-2,4.49-3.93,9-5.84,13.47a1,1,0,0,1-1.1.7C236.17,39.48,235.3,39.53,234.29,39.53Z" transform="translate(-0.01 -0.02)"/><path class="cls-3" d="M155.88,69.15h-3c-.31,0-.45-.2-.61-.45L148.45,63c-.27-.43-.43-.54-.81-.11s-.94.89-1.41,1.34a1.17,1.17,0,0,0-.32,1v3.41c0,.43,0,.54-.54.56-2.24,0-2.24,0-2.24-2v-18c0-.66.11-.9.83-.88,1.86,0,1.86,0,1.86,1.89V60.8a.3.3,0,0,0,.41,0l5.29-5.41a1.3,1.3,0,0,1,1.12-.6,27.83,27.83,0,0,1,2.88.18l-3.59,3.5c-.54.51-1,1.05-1.58,1.55s-.4.51,0,.94C152.15,63.59,154,66.26,155.88,69.15Z" transform="translate(-0.01 -0.02)"/><path class="cls-3" d="M133.7,69.51a7.25,7.25,0,0,1-7.32-7.18c0-.22,0-.45,0-.67a7.21,7.21,0,0,1,7.08-7.33h.5a7.59,7.59,0,1,1-.29,15.17Zm0-2.45a4.69,4.69,0,0,0,4.65-4.48,4.83,4.83,0,0,0-3.82-5.66,5,5,0,0,0-1.39-.07,4.74,4.74,0,0,0-4.08,4.67,4.8,4.8,0,0,0,4,5.49,5.34,5.34,0,0,0,.69,0Z" transform="translate(-0.01 -0.02)"/><path class="cls-3" d="M162.27,69.51A6.4,6.4,0,0,1,156.19,66c-.22-.43-.18-.63.27-.77l.29-.13c.47-.18,1-.56,1.44-.49s.58.76.89,1.14a4.11,4.11,0,0,0,5,.94A1.73,1.73,0,0,0,165,65a1.66,1.66,0,0,0-1.1-1.48,30.76,30.76,0,0,0-4-1.14,7.16,7.16,0,0,1-2.09-1.08,3.48,3.48,0,0,1-.81-4.85,3.88,3.88,0,0,1,.65-.69,6.75,6.75,0,0,1,8.85.24c1.21,1.24,1.14,1.46-.36,2.25a1,1,0,0,1-1.38-.21.75.75,0,0,1-.1-.17,4,4,0,0,0-5.12-.38,1.42,1.42,0,0,0,0,2,1.91,1.91,0,0,0,.32.24,6.21,6.21,0,0,0,1.62.61c1.1.24,2.24.49,3.3.83a4.09,4.09,0,0,1,3,3.83,4.35,4.35,0,0,1-2.92,4.11A6.75,6.75,0,0,1,162.27,69.51Z" transform="translate(-0.01 -0.02)"/><path class="cls-2" d="M169,21.33V10.82c0-.56.16-.76.74-.71a14.59,14.59,0,0,0,1.87,0c.63,0,.83.13.83.78v21c0,.59,0,.86-.77.81s-1.93.34-2.49-.15-.13-1.58-.15-2.41C169,27.18,169,24.27,169,21.33Z" transform="translate(-0.01 -0.02)"/><path class="cls-2" d="M216.33,21.37V31.81c0,.65-.13.94-.8.87s-1.89.34-2.43-.15S213,31,213,30.28V11c0-.67.2-.85.83-.78a14.43,14.43,0,0,0,1.86,0c.6,0,.72.18.72.74C216.31,14.35,216.33,17.85,216.33,21.37Z" transform="translate(-0.01 -0.02)"/><path class="cls-3" d="M22,70.92,11.26,77.07c-.34-.15-.18-.47-.18-.72V11.61a.6.6,0,0,1,.37-.77l.15,0H21.9v.68h0V61.34a.15.15,0,0,0,0,.16.15.15,0,0,0,0,.16v6.1A14.5,14.5,0,0,0,22,70.92Z" transform="translate(-0.01 -0.02)"/><path class="cls-4" d="M61.33,48.64,49,55.69,31.82,65.47,22.19,70.9H22a14.55,14.55,0,0,1-.13-3.16V61.63a.14.14,0,0,1,0-.15h0a.24.24,0,0,1,0-.12V11.57h0v-.66h.45A8.12,8.12,0,0,0,25,10.8a2.58,2.58,0,0,0,1.1.18H41.69c.2,0,.23.2.23.5V27.3a13.86,13.86,0,0,0,2.76-1.42,10.53,10.53,0,0,0,1.81-1.05,1.42,1.42,0,0,1,1.82,0c1.44.92,2.94,1.68,4.49,2.62V11.57c0-.41,0-.61.34-.66h5A2.7,2.7,0,0,1,61,13.41a2.94,2.94,0,0,1,0,.42v16.5a1.91,1.91,0,0,0,.16.94c-.36.85,0,1.77-.23,2.65V47.79C61.08,48.1,60.9,48.48,61.33,48.64Z" transform="translate(-0.01 -0.02)"/><path class="cls-4" d="M22,61.45h0a.2.2,0,0,1,0-.15A.38.38,0,0,0,22,61.45Z" transform="translate(-0.01 -0.02)"/><path class="cls-5" d="M48.18,43.39Z" transform="translate(-0.01 -0.02)"/><path class="cls-5" d="M11,15.29v3.1h0Z" transform="translate(-0.01 -0.02)"/><path class="cls-3" d="M117.68,69.51a7.2,7.2,0,0,1-7.3-7.11c0-.25,0-.5,0-.74a7.34,7.34,0,0,1,14.68,0,5.4,5.4,0,0,1,0,.56,7.2,7.2,0,0,1-7.13,7.27Zm0-2.45a4.66,4.66,0,0,0,4.64-4.48,4.8,4.8,0,0,0-3.76-5.66,5,5,0,0,0-1.44-.07A4.76,4.76,0,0,0,113,61.52,4.81,4.81,0,0,0,117,67a5.19,5.19,0,0,0,.68,0Z" transform="translate(-0.01 -0.02)"/><path class="cls-6" d="M52.91,11.57V27.41c-1.64-.94-3.14-1.71-4.49-2.63a1.41,1.41,0,0,0-1.81,0,10,10,0,0,1-1.82,1.06A14.36,14.36,0,0,1,42,27.25V11.43c0-.29,0-.45-.23-.49H53.36C53,11,52.84,11.16,52.91,11.57Z" transform="translate(-0.01 -0.02)"/></svg>