<svg id="Layer_1" data-name="Layer 1" xmlns="http://www.w3.org/2000/svg" width="3.11in" height="1.11in" viewBox="0 0 224.05 80"><defs><style>.cls-1{fill:#f5981f;}</style></defs><path class="cls-1" d="M155.61,0V75.44a.87.87,0,0,1-.59.92,37.09,37.09,0,0,1-11.24,3.24,43.37,43.37,0,0,1-10.74.1,28.27,28.27,0,0,1-12.46-4.46,23.14,23.14,0,0,1-9.37-12.83,30.9,30.9,0,0,1,.65-20A26.32,26.32,0,0,1,123.61,28.6,27.2,27.2,0,0,1,135.51,25a37.06,37.06,0,0,1,9.69.61c.37,0,.49,0,.49-.37V.16h0Zm-9.94,52.37h0V35.05c0-.87,0-.85-.86-1.12a21.62,21.62,0,0,0-8.69-.67,16.75,16.75,0,0,0-13.75,9,21.85,21.85,0,0,0-.61,19.64,15,15,0,0,0,8.59,8.43,22.11,22.11,0,0,0,7.5,1.41,20.09,20.09,0,0,0,7-.92.9.9,0,0,0,.75-1C145.65,64,145.67,58.19,145.67,52.39Z" transform="translate(0.01 0)"/><path class="cls-1" d="M10,0V44.08c0,.18-.1.42,0,.5s.35-.14.49-.28q8.87-8.76,17.7-17.6a1.32,1.32,0,0,1,1-.43H40.73a2.06,2.06,0,0,1-.61.7L18.94,47.44c-.63.59-.61.59,0,1.24L43.38,78.46l.2.3c-.14.19-.32.13-.47.13H32a1,1,0,0,1-.81-.37Q21,65.72,10.59,53c-.15-.17-.27-.51-.53-.43s0,.41,0,.61v25c0,.84,0,.76-.74.76H0Q0,39.74,0,.51C0,.1.1,0,.5,0Z" transform="translate(0.01 0)"/><path class="cls-1" d="M172.09,0V64.81a18.82,18.82,0,0,0,.22,3.18,3.26,3.26,0,0,0,3.43,3.08h.1a9.33,9.33,0,0,0,3.11-.34c.31,0,.41,0,.47.28.37,2.2.71,4.38,1.1,6.56,0,.37-.16.41-.37.53A15.82,15.82,0,0,1,172,80a11.75,11.75,0,0,1-5.3-1.26,8.8,8.8,0,0,1-4.26-6.33,14.74,14.74,0,0,1-.26-3.18V0Z" transform="translate(0.01 0)"/><path class="cls-1" d="M207.12,54.71H190.83c-.49,0-.66.1-.61.61a16.8,16.8,0,0,0,5.84,12.83,15.31,15.31,0,0,0,9,3.5,24.55,24.55,0,0,0,14.06-3.32c.45-.24.61-.2.79.27.78,1.85,1.57,3.71,2.36,5.56.17.35,0,.51-.22.71a28.55,28.55,0,0,1-10.79,4.44,29.43,29.43,0,0,1-13.65-.24,21.87,21.87,0,0,1-12.51-8.82,28.58,28.58,0,0,1-4.66-11.92,36,36,0,0,1,1-16.7,23.72,23.72,0,0,1,9.39-13.18,20.17,20.17,0,0,1,12.89-3.4,20.71,20.71,0,0,1,9.19,2.73,20.38,20.38,0,0,1,8,8.84,32.44,32.44,0,0,1,3,11.79c.15,1.9.17,3.81.19,5.71,0,.55-.17.67-.69.67h-16.3Zm-5.29-7.8H213c.43,0,.55-.13.53-.53A17.35,17.35,0,0,0,211,37.74a10.78,10.78,0,0,0-16.54-1.81,15.17,15.17,0,0,0-4.3,10.55c0,.47.23.47.55.47Z" transform="translate(0.01 0)"/><path class="cls-1" d="M62.22,52.57V27c0-.86,0-.74.75-.74h7c.45,0,.59.15.67.53.31,1.65.68,3.3,1,5,.1.55.25.47.61.21a44.24,44.24,0,0,1,9.19-5.36,21,21,0,0,1,13.26-1.1,13.82,13.82,0,0,1,9.41,8.15,21.1,21.1,0,0,1,1.77,9V78.34c0,.42-.14.5-.55.5H96.58c-.49,0-.59-.14-.59-.59V47.19a28.42,28.42,0,0,0-.63-6.82,9.7,9.7,0,0,0-2-4.26,7,7,0,0,0-4.8-2.22,15.81,15.81,0,0,0-9.27,2.28,52,52,0,0,0-6.6,4.61,1.23,1.23,0,0,0-.51,1.08V78.11c0,.73,0,.73-.71.73H62.87c-.51,0-.67-.1-.67-.63Q62.24,65.4,62.22,52.57Z" transform="translate(0.01 0)"/><path class="cls-1" d="M54,52.57V78.19c0,.55-.14.72-.71.7H44.6c-.43,0-.57,0-.57-.55V26.76c0-.45.1-.57.55-.57h8.8c.51,0,.59.17.59.63Z" transform="translate(0.01 0)"/><path class="cls-1" d="M48.88,3.16a6.59,6.59,0,0,1,6.68,6.49,6.68,6.68,0,0,1-6.68,6.54,6.48,6.48,0,0,1-6.52-6.43V9.59A6.58,6.58,0,0,1,48.88,3.16Z" transform="translate(0.01 0)"/></svg>