<svg width="42" height="42" viewBox="0 0 42 42" fill="none" xmlns="http://www.w3.org/2000/svg">
<path d="M2.1875 19.775C2.1875 9.51388 10.675 1.3125 21 1.3125C31.325 1.3125 39.8125 9.51388 39.8125 19.775V27.202C39.8125 27.3624 39.8046 27.5208 39.7889 27.6771C39.8046 27.7821 39.8125 27.8897 39.8125 28C39.8125 29.7237 39.5999 31.6024 39.3925 33.0374C39.067 35.2835 37.7379 37.5112 35.3045 38.4746C32.6856 39.5124 28.1383 40.6875 21 40.6875C20.4198 40.6875 19.8634 40.457 19.4532 40.0468C19.043 39.6366 18.8125 39.0802 18.8125 38.5C18.8125 37.9198 19.043 37.3634 19.4532 36.9532C19.8634 36.543 20.4198 36.3125 21 36.3125C27.6526 36.3125 31.6444 35.2188 33.6936 34.4076C34.3604 34.1434 34.9099 33.4653 35.0621 32.4109C35.0814 32.2773 35.1003 32.1414 35.119 32.0031C33.8888 32.277 32.4678 32.5413 31.0546 32.6891C29.1979 32.8843 27.3875 31.7651 27.0489 29.7491C26.8511 28.5766 26.6875 26.8853 26.6875 24.4991C26.6875 22.1147 26.8511 20.4242 27.0489 19.2509C27.3875 17.2349 29.1979 16.1158 31.0546 16.3109C31.8001 16.3888 32.5483 16.499 33.2684 16.6259C31.8439 11.3724 26.9351 7.4375 21 7.4375C15.0649 7.4375 10.157 11.3724 8.73163 16.6259C9.46569 16.4954 10.2041 16.3904 10.9454 16.3109C12.8021 16.1158 14.6125 17.2349 14.952 19.2509C15.1489 20.4234 15.3125 22.1147 15.3125 24.5C15.3125 26.8853 15.1489 28.5758 14.952 29.7491C14.6125 31.7651 12.8021 32.8843 10.9454 32.6891C9.02212 32.4879 7.08663 32.0722 5.63413 31.7091C3.53413 31.1832 2.1875 29.2793 2.1875 27.2029V19.775Z" fill="#680E12"/>
</svg>
