<svg width="42" height="42" viewBox="0 0 42 42" fill="none" xmlns="http://www.w3.org/2000/svg">
<path d="M29.75 7C29.2859 7 28.8407 6.81563 28.5126 6.48744C28.1844 6.15925 28 5.71413 28 5.25C28 4.78587 28.1844 4.34075 28.5126 4.01256C28.8407 3.68437 29.2859 3.5 29.75 3.5H36.75C37.2141 3.5 37.6592 3.68437 37.9874 4.01256C38.3156 4.34075 38.5 4.78587 38.5 5.25V12.25C38.5 12.7141 38.3156 13.1592 37.9874 13.4874C37.6592 13.8156 37.2141 14 36.75 14C36.2859 14 35.8407 13.8156 35.5126 13.4874C35.1844 13.1592 35 12.7141 35 12.25V9.4745L24.8622 19.6122C24.5341 19.9403 24.089 20.1246 23.625 20.1246C23.161 20.1246 22.7159 19.9403 22.3878 19.6122L17.5 14.7245L8.23725 23.9872C7.9072 24.306 7.46514 24.4824 7.0063 24.4784C6.54745 24.4744 6.10853 24.2904 5.78407 23.9659C5.4596 23.6415 5.27556 23.2025 5.27157 22.7437C5.26758 22.2849 5.44397 21.8428 5.76275 21.5128L16.2628 11.0128C16.5909 10.6847 17.036 10.5004 17.5 10.5004C17.964 10.5004 18.4091 10.6847 18.7372 11.0128L23.625 15.9005L32.5255 7H29.75ZM8.75 31.5V36.75C8.75 37.2141 8.56563 37.6592 8.23744 37.9874C7.90925 38.3156 7.46413 38.5 7 38.5C6.53587 38.5 6.09075 38.3156 5.76256 37.9874C5.43437 37.6592 5.25 37.2141 5.25 36.75V31.5C5.25 31.0359 5.43437 30.5907 5.76256 30.2626C6.09075 29.9344 6.53587 29.75 7 29.75C7.46413 29.75 7.90925 29.9344 8.23744 30.2626C8.56563 30.5907 8.75 31.0359 8.75 31.5ZM17.5 24.5C17.5 24.0359 17.3156 23.5908 16.9874 23.2626C16.6592 22.9344 16.2141 22.75 15.75 22.75C15.2859 22.75 14.8408 22.9344 14.5126 23.2626C14.1844 23.5908 14 24.0359 14 24.5V36.75C14 37.2141 14.1844 37.6592 14.5126 37.9874C14.8408 38.3156 15.2859 38.5 15.75 38.5C16.2141 38.5 16.6592 38.3156 16.9874 37.9874C17.3156 37.6592 17.5 37.2141 17.5 36.75V24.5ZM24.5 26.25C24.9641 26.25 25.4092 26.4344 25.7374 26.7626C26.0656 27.0908 26.25 27.5359 26.25 28V36.75C26.25 37.2141 26.0656 37.6592 25.7374 37.9874C25.4092 38.3156 24.9641 38.5 24.5 38.5C24.0359 38.5 23.5908 38.3156 23.2626 37.9874C22.9344 37.6592 22.75 37.2141 22.75 36.75V28C22.75 27.5359 22.9344 27.0908 23.2626 26.7626C23.5908 26.4344 24.0359 26.25 24.5 26.25ZM35 19.25C35 18.7859 34.8156 18.3408 34.4874 18.0126C34.1593 17.6844 33.7141 17.5 33.25 17.5C32.7859 17.5 32.3407 17.6844 32.0126 18.0126C31.6844 18.3408 31.5 18.7859 31.5 19.25V36.75C31.5 37.2141 31.6844 37.6592 32.0126 37.9874C32.3407 38.3156 32.7859 38.5 33.25 38.5C33.7141 38.5 34.1593 38.3156 34.4874 37.9874C34.8156 37.6592 35 37.2141 35 36.75V19.25Z" fill="#680E12"/>
</svg>
