<?xml version="1.0" encoding="utf-8"?>
<!-- Generator: Adobe Illustrator 25.3.0, SVG Export Plug-In . SVG Version: 6.00 Build 0)  -->
<svg version="1.1" id="Layer_1" xmlns="http://www.w3.org/2000/svg" xmlns:xlink="http://www.w3.org/1999/xlink" x="0px" y="0px"
	 viewBox="0 0 65 53" style="enable-background:new 0 0 65 53;" xml:space="preserve">
<style type="text/css">
	.st0{fill:#878787;}
</style>
<g>
	<path class="st0" d="M56.29,10.19c0,10.1,0,20.2,0,30.3c-0.47,1.46-1.51,1.96-2.98,1.94c-4.37-0.04-8.74-0.01-13.1-0.01
		c-0.17,0-0.35,0-0.53,0c0.15,1.06,0.57,1.94,1.22,2.69c0.32,0.37,0.65,0.64,1.19,0.57c0.19-0.03,0.4,0.03,0.59,0.08
		c1.11,0.33,1.78,1.39,1.63,2.55c-0.15,1.1-1.1,1.95-2.26,1.95c-6.37,0.01-12.73,0-19.1,0c-0.17,0-0.34-0.02-0.5-0.06
		c-1.15-0.29-1.86-1.31-1.74-2.51c0.1-1.1,1.04-1.96,2.19-2.02c0.24-0.01,0.56,0.03,0.71-0.1c0.98-0.8,1.54-1.85,1.74-3.15
		c-0.24,0-0.42,0-0.61,0c-4.48,0-8.95,0-13.43,0c-1.62,0-2.6-0.99-2.6-2.61c0-9.63,0-19.27,0-28.9c0-1.63,0.96-2.59,2.6-2.59
		c2.12,0,4.24,0,6.37,0c0.17,0,0.33,0,0.54,0c0-1.02,0-1.98,0-2.93c0.01-1.66,0.97-2.63,2.63-2.63c5.42,0,10.84,0.01,16.26-0.01
		c0.88,0,1.58,0.3,2.19,0.92c1.41,1.44,2.85,2.84,4.26,4.28c0.28,0.28,0.55,0.38,0.93,0.38c3.1-0.01,6.2-0.01,9.29-0.01
		c1.22,0,2.01,0.57,2.41,1.72C56.22,10.09,56.26,10.14,56.29,10.19z M54.71,38.44c-0.25,0-0.45,0-0.65,0c-12.33,0-24.66,0-36.99,0
		c-0.15,0-0.31,0.01-0.46-0.01c-0.45-0.04-0.75-0.36-0.75-0.79c0-0.43,0.3-0.75,0.75-0.78c0.15-0.01,0.31,0,0.46,0
		c12.35,0,24.69,0,37.04,0c0.19,0,0.39,0,0.6,0c0-0.18,0-0.29,0-0.4c0-8.52,0-17.04,0-25.56c0-0.73-0.27-1-1.01-1
		c-2.57,0-5.14,0-7.71,0c-0.11,0-0.23,0.02-0.42,0.03c0.18,0.2,0.31,0.36,0.45,0.49c0.55,0.54,0.77,1.2,0.77,1.97
		c-0.01,6.49,0,12.98-0.01,19.47c0,1.64-0.96,2.6-2.6,2.6c-7.79,0-15.58,0-23.38,0c-0.28,0-0.56-0.01-0.83-0.08
		c-1.14-0.3-1.76-1.22-1.76-2.57c0-7.09,0-14.19,0-21.28c0-0.2,0-0.39,0-0.63c-0.21,0-0.36,0-0.52,0c-2.11,0-4.21,0-6.32,0
		c-0.86,0-1.09,0.24-1.09,1.11c0,8.44,0,16.88,0,25.33c0,0.16,0,0.33,0,0.52c1.04,0,2.01,0,2.98,0c0.61,0,0.99,0.31,0.99,0.8
		c-0.01,0.49-0.38,0.78-1.01,0.78c-0.85,0-1.7,0-2.56,0c-0.13,0-0.26,0.02-0.4,0.03c0,0.54-0.01,1.04,0,1.53
		c0.02,0.47,0.28,0.75,0.74,0.81c0.15,0.02,0.31,0.01,0.46,0.01c14,0,28.01,0,42.01,0c0.14,0,0.28,0.01,0.42-0.01
		c0.48-0.05,0.76-0.33,0.78-0.82C54.72,39.5,54.71,39.01,54.71,38.44z M37.25,4.33c-0.22,0-0.37,0-0.52,0c-5.27,0-10.53,0-15.8,0
		c-0.89,0-1.13,0.24-1.13,1.13c0,8.76,0,17.53,0,26.29c0,0.9,0.22,1.12,1.13,1.12c7.71,0,15.42,0,23.14,0c0.9,0,1.12-0.23,1.12-1.13
		c0-6.32,0-12.64,0-18.95c0-0.16-0.01-0.33-0.02-0.54c-0.21,0-0.38,0-0.55,0c-1.58,0-3.16,0-4.74,0c-0.29,0-0.59-0.01-0.87-0.09
		c-1.08-0.28-1.75-1.21-1.75-2.39C37.25,7.99,37.25,6.19,37.25,4.33z M38.06,42.44c-3.68,0-7.45,0-11.12,0
		c-0.42,1.1-0.83,2.15-1.23,3.19c4.52,0,9.08,0,13.57,0C38.88,44.57,38.48,43.53,38.06,42.44z M32.5,47.09c-3.05,0-6.1,0-9.15,0
		c-0.14,0-0.28-0.01-0.42,0.01c-0.47,0.05-0.82,0.42-0.82,0.86c0,0.42,0.32,0.79,0.77,0.86c0.14,0.02,0.28,0.02,0.42,0.02
		c6.13,0,12.27,0,18.4,0c0.15,0,0.31,0,0.46-0.03c0.45-0.09,0.75-0.47,0.72-0.89c-0.03-0.43-0.36-0.77-0.81-0.82
		c-0.15-0.02-0.31-0.01-0.46-0.01C38.57,47.09,35.54,47.09,32.5,47.09z M43.79,10.67c-1.64-1.64-3.31-3.32-4.95-4.95
		c0,1.3-0.01,2.7,0,4.11c0.01,0.52,0.3,0.83,0.8,0.84C41.06,10.68,42.49,10.67,43.79,10.67z"/>
	<path class="st0" d="M35.67,13.09c0,1.78,0,3.56,0,5.34c0,1.12-0.63,1.77-1.75,1.77c-3.59,0-7.19,0.01-10.78,0
		c-1.06,0-1.73-0.64-1.73-1.7c-0.01-3.64-0.01-7.28,0-10.92c0-1.04,0.66-1.67,1.71-1.67c3.62,0,7.25-0.01,10.87,0
		c1.03,0,1.68,0.66,1.68,1.69C35.67,9.44,35.67,11.27,35.67,13.09z M23.03,7.53c0,2.95,0,5.87,0,8.88c1.12-1.31,2.17-2.54,3.24-3.77
		c0.42-0.48,0.87-0.49,1.32-0.06c0.26,0.25,0.5,0.53,0.77,0.81c0.64-0.8,1.22-1.52,1.8-2.24c0.48-0.6,0.92-0.63,1.47-0.08
		c0.72,0.71,1.42,1.42,2.14,2.13c0.08,0.08,0.17,0.14,0.29,0.24c0-2,0-3.94,0-5.91C30.37,7.53,26.71,7.53,23.03,7.53z M30.98,12.67
		c-0.5,0.63-0.98,1.23-1.5,1.88c0.15,0.13,0.29,0.21,0.39,0.32c0.31,0.36,0.3,0.83-0.01,1.13c-0.32,0.31-0.76,0.31-1.12-0.03
		c-0.21-0.19-0.4-0.39-0.59-0.59c-0.37-0.38-0.75-0.77-1.14-1.17c-1.27,1.49-2.49,2.91-3.75,4.38c3.67,0,7.23,0,10.82,0
		c0-0.91,0-1.79,0-2.67c0-0.08-0.04-0.19-0.1-0.25C32.99,14.68,32,13.68,30.98,12.67z"/>
	<path class="st0" d="M28.97,25.75c2.09,0,4.18,0,6.27,0c0.15,0,0.31-0.01,0.46,0.01c0.46,0.05,0.76,0.37,0.76,0.79
		c0,0.42-0.31,0.73-0.77,0.78c-0.12,0.01-0.25,0.01-0.37,0.01c-4.26,0-8.52,0-12.77,0c-0.18,0-0.38,0-0.55-0.04
		c-0.4-0.1-0.6-0.37-0.59-0.78c0.01-0.39,0.22-0.64,0.59-0.73c0.18-0.04,0.37-0.04,0.55-0.04C24.7,25.75,26.83,25.75,28.97,25.75z"
		/>
	<path class="st0" d="M36.08,24.16c-2.12,0-4.24,0-6.36,0c-0.17,0-0.34,0-0.51-0.02c-0.41-0.06-0.64-0.33-0.66-0.72
		c-0.02-0.39,0.17-0.69,0.57-0.79c0.18-0.05,0.37-0.05,0.55-0.05c4.27,0,8.55,0,12.82,0c0.2,0,0.41,0.01,0.59,0.07
		c0.37,0.12,0.53,0.41,0.5,0.79c-0.03,0.39-0.25,0.63-0.63,0.7c-0.17,0.03-0.34,0.02-0.51,0.02C40.32,24.16,38.2,24.16,36.08,24.16z
		"/>
	<path class="st0" d="M40.86,25.75c0.6,0,1.21-0.01,1.81,0c0.58,0.01,0.9,0.3,0.91,0.77c0.01,0.5-0.32,0.81-0.92,0.81
		c-1.24,0.01-2.48,0.01-3.72,0c-0.57-0.01-0.89-0.32-0.89-0.79c0-0.48,0.32-0.78,0.89-0.79C39.59,25.74,40.23,25.75,40.86,25.75z"/>
	<path class="st0" d="M24.16,24.16c-0.62,0-1.24,0.01-1.86,0c-0.57-0.01-0.89-0.31-0.89-0.79c0-0.48,0.33-0.79,0.89-0.79
		c1.25-0.01,2.51-0.01,3.76,0c0.55,0.01,0.88,0.34,0.87,0.82c-0.01,0.46-0.33,0.75-0.87,0.76C25.43,24.17,24.8,24.16,24.16,24.16z"
		/>
	<path class="st0" d="M26.16,9.87c0.01,0.43-0.34,0.8-0.78,0.8c-0.43,0.01-0.77-0.31-0.79-0.74c-0.02-0.44,0.31-0.82,0.75-0.84
		C25.75,9.08,26.14,9.44,26.16,9.87z"/>
</g>
</svg>
