<svg xmlns="http://www.w3.org/2000/svg" width="226.512" height="53.624" viewBox="0 0 226.512 53.624">
  <g id="Group_130" data-name="Group 130" transform="translate(-214.232 -1096.824)">
    <path id="Path_232" data-name="Path 232" d="M7.1,0,4.448-4.56H2.688V0H1.232V-11.152h3.6a4.779,4.779,0,0,1,2.136.432,3.008,3.008,0,0,1,1.3,1.168A3.256,3.256,0,0,1,8.7-7.872,3.282,3.282,0,0,1,8.04-5.84,3.245,3.245,0,0,1,6.048-4.672L8.848,0ZM2.688-5.728H4.832a2.433,2.433,0,0,0,1.776-.584A2.092,2.092,0,0,0,7.2-7.872a2,2,0,0,0-.584-1.536,2.541,2.541,0,0,0-1.784-.544H2.688Zm7.728,1.312a4.925,4.925,0,0,1,.544-2.36,3.947,3.947,0,0,1,1.5-1.576,4.1,4.1,0,0,1,2.12-.56,3.891,3.891,0,0,1,2,.5A3.3,3.3,0,0,1,17.84-7.168v-1.6h1.472V0H17.84V-1.632A3.43,3.43,0,0,1,16.552-.36a3.853,3.853,0,0,1-1.992.5,3.974,3.974,0,0,1-2.112-.576A4.04,4.04,0,0,1,10.96-2.048,5.033,5.033,0,0,1,10.416-4.416ZM17.84-4.4a3.565,3.565,0,0,0-.4-1.728,2.825,2.825,0,0,0-1.08-1.128,2.942,2.942,0,0,0-1.5-.392,2.946,2.946,0,0,0-1.488.384A2.786,2.786,0,0,0,12.3-6.144a3.565,3.565,0,0,0-.4,1.728,3.647,3.647,0,0,0,.4,1.752,2.83,2.83,0,0,0,1.072,1.136,2.9,2.9,0,0,0,1.488.392,2.942,2.942,0,0,0,1.5-.392,2.812,2.812,0,0,0,1.08-1.136A3.612,3.612,0,0,0,17.84-4.4Zm5.712-3.168V-2.4a1.229,1.229,0,0,0,.272.9,1.341,1.341,0,0,0,.944.264H25.84V0H24.528A2.611,2.611,0,0,1,22.7-.56,2.4,2.4,0,0,1,22.1-2.4V-7.568H20.96v-1.2H22.1v-2.208h1.456v2.208H25.84v1.2ZM35.6-4.72a8.568,8.568,0,0,1-.048.88H28.544a2.835,2.835,0,0,0,.888,2.024,2.824,2.824,0,0,0,1.96.728,2.692,2.692,0,0,0,1.576-.44A2.329,2.329,0,0,0,33.856-2.7h1.568A3.769,3.769,0,0,1,34.016-.648a4.25,4.25,0,0,1-2.624.792,4.432,4.432,0,0,1-2.232-.56,3.964,3.964,0,0,1-1.544-1.592,4.937,4.937,0,0,1-.56-2.392A5.008,5.008,0,0,1,27.6-6.784,3.819,3.819,0,0,1,29.128-8.36a4.548,4.548,0,0,1,2.264-.552,4.4,4.4,0,0,1,2.208.544,3.767,3.767,0,0,1,1.48,1.5A4.415,4.415,0,0,1,35.6-4.72Zm-1.5-.3a2.686,2.686,0,0,0-.368-1.432,2.393,2.393,0,0,0-1-.912,3.119,3.119,0,0,0-1.4-.312,2.7,2.7,0,0,0-1.88.7,2.868,2.868,0,0,0-.888,1.952Zm2.88.608a4.925,4.925,0,0,1,.544-2.36,3.947,3.947,0,0,1,1.5-1.576,4.134,4.134,0,0,1,2.136-.56,3.966,3.966,0,0,1,1.9.472A3.406,3.406,0,0,1,44.4-7.2v-4.64h1.472V0H44.4V-1.648A3.407,3.407,0,0,1,43.12-.36a3.81,3.81,0,0,1-1.984.5,4.016,4.016,0,0,1-2.12-.576,4.021,4.021,0,0,1-1.5-1.616A5.033,5.033,0,0,1,36.976-4.416ZM44.4-4.4A3.565,3.565,0,0,0,44-6.128a2.825,2.825,0,0,0-1.08-1.128,2.942,2.942,0,0,0-1.5-.392,2.946,2.946,0,0,0-1.488.384,2.786,2.786,0,0,0-1.072,1.12,3.565,3.565,0,0,0-.4,1.728,3.647,3.647,0,0,0,.4,1.752,2.83,2.83,0,0,0,1.072,1.136,2.9,2.9,0,0,0,1.488.392,2.942,2.942,0,0,0,1.5-.392A2.812,2.812,0,0,0,44-2.664,3.612,3.612,0,0,0,44.4-4.4ZM54.72-9.36v2.8h3.76v1.776H54.72v2.96h4.24V0H52.48V-11.184h6.48V-9.36ZM65.888,0,64.064-2.752,62.448,0h-2.4l2.9-4.448L60.016-8.864h2.528l1.808,2.736,1.632-2.736h2.4L65.472-4.448,68.416,0Zm3.168-4.432a4.972,4.972,0,0,1,.56-2.408,4,4,0,0,1,1.552-1.6,4.49,4.49,0,0,1,2.272-.568,4.368,4.368,0,0,1,2.728.824,4.008,4.008,0,0,1,1.448,2.312H75.2a1.767,1.767,0,0,0-.648-.9A1.881,1.881,0,0,0,73.424-7.1a1.847,1.847,0,0,0-1.52.7,3.081,3.081,0,0,0-.56,1.976,3.052,3.052,0,0,0,.56,1.96,1.847,1.847,0,0,0,1.52.7A1.7,1.7,0,0,0,75.2-2.992h2.416A4.088,4.088,0,0,1,76.16-.7a4.291,4.291,0,0,1-2.72.848,4.49,4.49,0,0,1-2.272-.568,4,4,0,0,1-1.552-1.6A4.972,4.972,0,0,1,69.056-4.432ZM87.5-4.624a5.286,5.286,0,0,1-.064.864H80.96a2.2,2.2,0,0,0,.672,1.5,2.072,2.072,0,0,0,1.456.544,1.829,1.829,0,0,0,1.776-1.072H87.28a4.038,4.038,0,0,1-1.472,2.1,4.3,4.3,0,0,1-2.672.824,4.624,4.624,0,0,1-2.3-.568,4,4,0,0,1-1.584-1.608,4.927,4.927,0,0,1-.568-2.4,5.019,5.019,0,0,1,.56-2.416,3.907,3.907,0,0,1,1.568-1.6,4.7,4.7,0,0,1,2.32-.56,4.66,4.66,0,0,1,2.264.544A3.829,3.829,0,0,1,86.952-6.92,4.672,4.672,0,0,1,87.5-4.624Zm-2.32-.64a1.776,1.776,0,0,0-.624-1.384,2.211,2.211,0,0,0-1.488-.52,2.033,2.033,0,0,0-1.4.5,2.216,2.216,0,0,0-.7,1.4Zm6.192-6.576V0h-2.24V-11.84Zm4.448,0V0h-2.24V-11.84Zm10.448,7.216a5.286,5.286,0,0,1-.064.864h-6.48a2.2,2.2,0,0,0,.672,1.5,2.072,2.072,0,0,0,1.456.544,1.829,1.829,0,0,0,1.776-1.072h2.416a4.038,4.038,0,0,1-1.472,2.1A4.3,4.3,0,0,1,101.9.144a4.624,4.624,0,0,1-2.3-.568,4,4,0,0,1-1.584-1.608,4.927,4.927,0,0,1-.568-2.4,5.019,5.019,0,0,1,.56-2.416,3.907,3.907,0,0,1,1.568-1.6,4.7,4.7,0,0,1,2.32-.56,4.66,4.66,0,0,1,2.264.544A3.829,3.829,0,0,1,105.72-6.92,4.672,4.672,0,0,1,106.272-4.624Zm-2.32-.64a1.776,1.776,0,0,0-.624-1.384,2.211,2.211,0,0,0-1.488-.52,2.033,2.033,0,0,0-1.4.5,2.216,2.216,0,0,0-.7,1.4Zm8.864-3.728a3.417,3.417,0,0,1,2.56,1,3.828,3.828,0,0,1,.976,2.792V0h-2.24V-4.9a2.3,2.3,0,0,0-.528-1.624,1.87,1.87,0,0,0-1.44-.568,1.916,1.916,0,0,0-1.464.568,2.277,2.277,0,0,0-.536,1.624V0H107.9V-8.864h2.24v1.1a3.1,3.1,0,0,1,1.144-.9A3.539,3.539,0,0,1,112.816-8.992Zm8.272,1.968v4.288a.847.847,0,0,0,.216.648,1.061,1.061,0,0,0,.728.2h1.04V0h-1.408q-2.832,0-2.832-2.752V-7.024h-1.056v-1.84h1.056v-2.192h2.256v2.192h1.984v1.84ZM133.68.112a5.628,5.628,0,0,1-2.832-.728,5.329,5.329,0,0,1-2.024-2.032,5.818,5.818,0,0,1-.744-2.936,5.818,5.818,0,0,1,.744-2.936,5.329,5.329,0,0,1,2.024-2.032,5.628,5.628,0,0,1,2.832-.728,5.659,5.659,0,0,1,2.848.728,5.288,5.288,0,0,1,2.016,2.024,5.856,5.856,0,0,1,.736,2.944,5.856,5.856,0,0,1-.736,2.944,5.288,5.288,0,0,1-2.016,2.024A5.659,5.659,0,0,1,133.68.112Zm0-1.264a4.11,4.11,0,0,0,2.1-.544,3.829,3.829,0,0,0,1.472-1.552,4.9,4.9,0,0,0,.536-2.336,4.89,4.89,0,0,0-.536-2.344,3.858,3.858,0,0,0-1.464-1.544,4.1,4.1,0,0,0-2.112-.544,4.1,4.1,0,0,0-2.112.544A3.858,3.858,0,0,0,130.1-7.928a4.89,4.89,0,0,0-.536,2.344,4.9,4.9,0,0,0,.536,2.336A3.829,3.829,0,0,0,131.576-1.7,4.11,4.11,0,0,0,133.68-1.152Zm11.792-7.776a3.554,3.554,0,0,1,2.592.968,3.726,3.726,0,0,1,.992,2.792V0h-1.44V-4.96a2.819,2.819,0,0,0-.656-2.008,2.344,2.344,0,0,0-1.792-.7,2.4,2.4,0,0,0-1.832.72,2.942,2.942,0,0,0-.68,2.1V0H141.2V-8.768h1.456V-7.52a2.891,2.891,0,0,1,1.176-1.04A3.648,3.648,0,0,1,145.472-8.928Zm17.1-2.224v1.184h-3.04V0H158.08V-9.968h-3.056v-1.184Zm3.248,3.808a2.793,2.793,0,0,1,1.1-1.168,3.388,3.388,0,0,1,1.736-.416v1.5h-.384q-2.448,0-2.448,2.656V0h-1.456V-8.768h1.456Zm12.288-1.424V0h-1.456V-1.3A2.835,2.835,0,0,1,175.5-.248a3.583,3.583,0,0,1-1.64.376,3.931,3.931,0,0,1-1.84-.424,3.082,3.082,0,0,1-1.288-1.272,4.188,4.188,0,0,1-.472-2.064V-8.768h1.44v4.944a2.8,2.8,0,0,0,.656,1.992,2.344,2.344,0,0,0,1.792.7,2.394,2.394,0,0,0,1.84-.72,2.964,2.964,0,0,0,.672-2.1V-8.768ZM183.68.144A4.535,4.535,0,0,1,181.872-.2a3.05,3.05,0,0,1-1.264-.96,2.555,2.555,0,0,1-.512-1.416h1.5a1.476,1.476,0,0,0,.616,1.072,2.344,2.344,0,0,0,1.448.416,2.107,2.107,0,0,0,1.312-.368,1.125,1.125,0,0,0,.48-.928.915.915,0,0,0-.512-.856,7.179,7.179,0,0,0-1.584-.552,11.641,11.641,0,0,1-1.592-.52,2.825,2.825,0,0,1-1.056-.784,2.046,2.046,0,0,1-.44-1.368,2.073,2.073,0,0,1,.4-1.232,2.711,2.711,0,0,1,1.136-.888,4.088,4.088,0,0,1,1.68-.328,3.587,3.587,0,0,1,2.352.736,2.652,2.652,0,0,1,.96,2.016h-1.456a1.5,1.5,0,0,0-.552-1.1,2.058,2.058,0,0,0-1.352-.416,2.085,2.085,0,0,0-1.248.336,1.038,1.038,0,0,0-.464.88.965.965,0,0,0,.28.712,2.045,2.045,0,0,0,.7.448,12.131,12.131,0,0,0,1.176.376,12.667,12.667,0,0,1,1.536.5,2.686,2.686,0,0,1,1.016.744,1.989,1.989,0,0,1,.44,1.3,2.219,2.219,0,0,1-.4,1.3,2.668,2.668,0,0,1-1.128.9A4.032,4.032,0,0,1,183.68.144ZM190.7-7.568V-2.4a1.229,1.229,0,0,0,.272.9,1.341,1.341,0,0,0,.944.264h1.072V0H191.68a2.611,2.611,0,0,1-1.824-.56,2.4,2.4,0,0,1-.608-1.84V-7.568h-1.136v-1.2h1.136v-2.208H190.7v2.208h2.288v1.2Zm5.5.416A3.472,3.472,0,0,1,197.5-8.408a3.853,3.853,0,0,1,1.992-.5,4.1,4.1,0,0,1,2.12.56,3.947,3.947,0,0,1,1.5,1.576,4.925,4.925,0,0,1,.544,2.36,5.033,5.033,0,0,1-.544,2.368,4.021,4.021,0,0,1-1.5,1.616,4.016,4.016,0,0,1-2.12.576,3.821,3.821,0,0,1-1.976-.5,3.6,3.6,0,0,1-1.3-1.256V4.16h-1.456V-8.768h1.456Zm5.952,2.736a3.565,3.565,0,0,0-.4-1.728,2.77,2.77,0,0,0-1.08-1.12,2.99,2.99,0,0,0-1.5-.384,2.912,2.912,0,0,0-1.48.392,2.866,2.866,0,0,0-1.088,1.136,3.52,3.52,0,0,0-.408,1.72,3.554,3.554,0,0,0,.408,1.736A2.866,2.866,0,0,0,197.7-1.528a2.912,2.912,0,0,0,1.48.392,2.942,2.942,0,0,0,1.5-.392,2.812,2.812,0,0,0,1.08-1.136A3.647,3.647,0,0,0,202.16-4.416Zm4.16-5.776a.958.958,0,0,1-.7-.288.958.958,0,0,1-.288-.7.958.958,0,0,1,.288-.7.958.958,0,0,1,.7-.288.913.913,0,0,1,.68.288.972.972,0,0,1,.28.7.972.972,0,0,1-.28.7A.913.913,0,0,1,206.32-10.192Zm.7,1.424V0h-1.456V-8.768Zm3.936-3.072V0H209.5V-11.84Zm6.3,11.984a4.489,4.489,0,0,1-2.232-.56,3.987,3.987,0,0,1-1.568-1.592A4.881,4.881,0,0,1,212.9-4.4a4.741,4.741,0,0,1,.584-2.376,4.024,4.024,0,0,1,1.592-1.584,4.619,4.619,0,0,1,2.256-.552,4.619,4.619,0,0,1,2.256.552,4.038,4.038,0,0,1,1.592,1.576A4.729,4.729,0,0,1,221.76-4.4a4.672,4.672,0,0,1-.6,2.392,4.159,4.159,0,0,1-1.624,1.592A4.657,4.657,0,0,1,217.264.144Zm0-1.28a3.074,3.074,0,0,0,1.472-.368,2.8,2.8,0,0,0,1.112-1.1,3.536,3.536,0,0,0,.424-1.792,3.591,3.591,0,0,0-.416-1.792,2.724,2.724,0,0,0-1.088-1.1,3.035,3.035,0,0,0-1.456-.36,3.022,3.022,0,0,0-1.464.36,2.639,2.639,0,0,0-1.064,1.1,3.708,3.708,0,0,0-.4,1.792,3.808,3.808,0,0,0,.392,1.808,2.606,2.606,0,0,0,1.048,1.1A2.944,2.944,0,0,0,217.264-1.136Zm8.192-6.432V-2.4a1.229,1.229,0,0,0,.272.9,1.341,1.341,0,0,0,.944.264h1.072V0h-1.312a2.611,2.611,0,0,1-1.824-.56A2.4,2.4,0,0,1,224-2.4V-7.568h-1.136v-1.2H224v-2.208h1.456v2.208h2.288v1.2Z" transform="translate(213 1109)" fill="#fff"/>
    <path id="Path_231" data-name="Path 231" d="M.752-2.272v-1.76L5.984-11.52H8.592v7.3H10v1.952H8.592V0H6.352V-2.272ZM6.5-9.12l-3.28,4.9H6.5ZM12.672.112a1.386,1.386,0,0,1-1-.376A1.244,1.244,0,0,1,11.28-1.2a1.244,1.244,0,0,1,.392-.936,1.386,1.386,0,0,1,1-.376,1.337,1.337,0,0,1,.976.376,1.257,1.257,0,0,1,.384.936,1.257,1.257,0,0,1-.384.936A1.337,1.337,0,0,1,12.672.112Zm5.5-3.392A1.746,1.746,0,0,0,18.76-2.2a1.865,1.865,0,0,0,1.224.376,1.519,1.519,0,0,0,1.44-.824,6.221,6.221,0,0,0,.448-2.776,2.42,2.42,0,0,1-1.032.8,3.559,3.559,0,0,1-1.432.288A3.979,3.979,0,0,1,17.56-4.76a3.131,3.131,0,0,1-1.3-1.264,4.051,4.051,0,0,1-.48-2.04,3.8,3.8,0,0,1,1.056-2.824,3.909,3.909,0,0,1,2.88-1.048A3.517,3.517,0,0,1,22.92-10.48,8.218,8.218,0,0,1,23.856-6.1a13.349,13.349,0,0,1-.36,3.408A3.706,3.706,0,0,1,22.264-.672a3.737,3.737,0,0,1-2.376.688A4.14,4.14,0,0,1,17.872-.44,3.253,3.253,0,0,1,16.6-1.64a3.693,3.693,0,0,1-.5-1.64Zm1.7-2.88a1.711,1.711,0,0,0,1.312-.512,1.931,1.931,0,0,0,.48-1.376,2.017,2.017,0,0,0-.5-1.464,1.817,1.817,0,0,0-1.368-.52,1.787,1.787,0,0,0-1.368.536,1.983,1.983,0,0,0-.5,1.416A1.976,1.976,0,0,0,18.408-6.7,1.882,1.882,0,0,0,19.872-6.16Zm11.984-8.992L27.536,2.9H25.344l4.32-18.048Zm9.36,5.424H36.032v2.736a2.409,2.409,0,0,1,.96-.68,3.373,3.373,0,0,1,1.328-.264,3.627,3.627,0,0,1,2.1.56A3.24,3.24,0,0,1,41.6-5.944a4.744,4.744,0,0,1,.368,1.864A4.157,4.157,0,0,1,40.92-1.12,3.887,3.887,0,0,1,37.936,0a4.387,4.387,0,0,1-2.912-.912A3.423,3.423,0,0,1,33.792-3.3h2.176a1.72,1.72,0,0,0,.648,1.024,2.065,2.065,0,0,0,1.288.384,1.725,1.725,0,0,0,1.424-.592,2.414,2.414,0,0,0,.48-1.568A2.13,2.13,0,0,0,39.32-5.56a1.87,1.87,0,0,0-1.432-.52,1.814,1.814,0,0,0-1.12.336,1.833,1.833,0,0,0-.64.9H33.984V-11.7h7.232Z" transform="translate(377.871 1144)" fill="#fff"/>
    <rect id="Rectangle_4" data-name="Rectangle 4" width="23.448" height="23.448" transform="translate(234 1127)" fill="#00b67a"/>
    <g id="trustpilot-2" transform="translate(237.145 1129.9)">
      <path id="Path_4" data-name="Path 4" d="M17.655,6.419H10.913L8.831,0,6.742,6.419,0,6.413l5.46,3.971L3.371,16.8l5.46-3.965L14.284,16.8,12.2,10.384Z" transform="translate(0 0)" fill="#fff"/>
      <path id="Path_5" data-name="Path 5" d="M403.929,471.912l-.469-1.452-3.371,2.448Z" transform="translate(-391.259 -460.076)" fill="#005128"/>
    </g>
    <rect id="Rectangle_4-2" data-name="Rectangle 4" width="23.448" height="23.448" transform="translate(259.793 1127)" fill="#00b67a"/>
    <g id="trustpilot-2-2" data-name="trustpilot-2" transform="translate(262.813 1129.9)">
      <path id="Path_4-2" data-name="Path 4" d="M17.655,6.419H10.913L8.831,0,6.742,6.419,0,6.413l5.46,3.971L3.371,16.8l5.46-3.965L14.284,16.8,12.2,10.384Z" transform="translate(0 0)" fill="#fff"/>
      <path id="Path_5-2" data-name="Path 5" d="M403.929,471.912l-.469-1.452-3.371,2.448Z" transform="translate(-391.259 -460.076)" fill="#005128"/>
    </g>
    <rect id="Rectangle_4-3" data-name="Rectangle 4" width="23.448" height="23.448" transform="translate(311.378 1127)" fill="#00b67a"/>
    <g id="trustpilot-2-3" data-name="trustpilot-2" transform="translate(314.15 1129.9)">
      <path id="Path_4-3" data-name="Path 4" d="M17.655,6.419H10.913L8.831,0,6.742,6.419,0,6.413l5.46,3.971L3.371,16.8l5.46-3.965L14.284,16.8,12.2,10.384Z" transform="translate(0 0)" fill="#fff"/>
      <path id="Path_5-3" data-name="Path 5" d="M403.929,471.912l-.469-1.452-3.371,2.448Z" transform="translate(-391.259 -460.076)" fill="#005128"/>
    </g>
    <rect id="Rectangle_4-4" data-name="Rectangle 4" width="23.448" height="23.448" transform="translate(285.585 1127)" fill="#00b67a"/>
    <g id="trustpilot-2-4" data-name="trustpilot-2" transform="translate(288.482 1129.9)">
      <path id="Path_4-4" data-name="Path 4" d="M17.655,6.419H10.913L8.831,0,6.742,6.419,0,6.413l5.46,3.971L3.371,16.8l5.46-3.965L14.284,16.8,12.2,10.384Z" transform="translate(0 0)" fill="#fff"/>
      <path id="Path_5-4" data-name="Path 5" d="M403.929,471.912l-.469-1.452-3.371,2.448Z" transform="translate(-391.259 -460.076)" fill="#005128"/>
    </g>
    <rect id="Rectangle_4-5" data-name="Rectangle 4" width="23.448" height="23.448" transform="translate(337.17 1127)" fill="#00b67a"/>
    <g id="trustpilot-2-5" data-name="trustpilot-2" transform="translate(339.818 1129.9)">
      <path id="Path_4-5" data-name="Path 4" d="M17.655,6.419H10.913L8.831,0,6.742,6.419,0,6.413l5.46,3.971L3.371,16.8l5.46-3.965L14.284,16.8,12.2,10.384Z" transform="translate(0 0)" fill="#fff"/>
      <path id="Path_5-5" data-name="Path 5" d="M403.929,471.912l-.469-1.452-3.371,2.448Z" transform="translate(-391.259 -460.076)" fill="#005128"/>
    </g>
  </g>
</svg>
