<svg width="42" height="42" viewBox="0 0 42 42" fill="none" xmlns="http://www.w3.org/2000/svg">
<path d="M9.39769 2.95302C9.61602 3.14327 9.76529 3.40038 9.82226 3.6843C9.87924 3.96823 9.84072 4.26302 9.71269 4.52277C9.68938 4.59933 9.67787 4.67899 9.67857 4.75902C9.67857 4.92439 9.72057 5.23939 10.1169 5.63314C10.3086 5.82477 10.4556 5.96127 10.6157 6.11089C10.7469 6.23164 10.8861 6.35764 11.0619 6.53089C11.4032 6.85639 11.7628 7.23964 12.0857 7.72002C12.7551 8.72539 13.1252 9.98277 13.1252 11.8124C13.1252 12.8151 12.9598 13.7549 12.6579 14.587C11.8022 16.9495 9.87807 18.3749 7.87519 18.3749C5.87232 18.3749 3.94819 16.9469 3.09244 14.587C2.77677 13.6963 2.61865 12.7574 2.62519 11.8124C2.62519 10.9566 2.85357 9.93552 3.16857 8.99314C3.48357 8.05077 3.92457 7.07164 4.43382 6.28414C5.04019 5.26039 5.89332 4.40202 6.55482 3.82452C6.91882 3.50717 7.29722 3.20673 7.68882 2.92414L7.76757 2.87164L7.79119 2.85327L7.79907 2.84802L7.80432 2.84539C8.04502 2.68495 8.33199 2.60851 8.62061 2.62798C8.90923 2.64744 9.18334 2.76171 9.40032 2.95302M7.87519 20.9999C9.54251 21.0041 11.1579 20.4204 12.4374 19.3514C12.4899 19.5159 12.5398 19.6821 12.5871 19.8501C13.1252 21.8241 13.1252 24.2654 13.1252 26.1528V26.2499C13.1252 31.6521 12.1146 34.8599 10.9701 36.7683C10.5364 37.5188 9.96878 38.1834 9.29532 38.7291C9.02743 38.9365 8.73681 39.1126 8.42907 39.2541C8.42907 39.2541 8.09569 39.3749 7.87519 39.3749C7.68596 39.3599 7.49964 39.3192 7.32132 39.2541C7.01358 39.1126 6.72296 38.9365 6.45507 38.7291C5.78161 38.1834 5.21396 37.5188 4.78032 36.7683C3.63582 34.8625 2.62519 31.6521 2.62519 26.2499V26.1554C2.62519 24.2654 2.6252 21.8268 3.16332 19.8475C3.20882 19.683 3.25869 19.5168 3.31294 19.3488C4.59136 20.4206 6.2069 21.0072 7.87519 21.0051M18.3699 28.8093C17.46 28.7077 16.565 28.5007 15.7029 28.1924C15.7344 27.5309 15.7502 26.8484 15.7502 26.1449V25.3679C16.5639 25.7538 17.4459 26.0241 18.3699 26.1554V20.9999C18.3699 19.6075 18.9231 18.2721 19.9076 17.2876C20.8922 16.303 22.2276 15.7499 23.6199 15.7499H28.7781C28.5693 14.2985 28.0161 12.9182 27.1648 11.7243C26.3136 10.5304 25.1889 9.55755 23.8848 8.88714C22.5807 8.21672 21.1351 7.86818 19.6688 7.87063C18.2025 7.87309 16.758 8.22648 15.4562 8.90127C15.25 8.0431 14.9098 7.22278 14.4482 6.47052C16.1495 5.62969 18.0284 5.21116 19.9258 5.25034C21.8231 5.28953 23.6831 5.78528 25.3483 6.69564C27.0135 7.60599 28.4348 8.90415 29.4919 10.4802C30.5491 12.0563 31.2109 13.8638 31.4214 15.7499H34.1173C35.5097 15.7499 36.8451 16.303 37.8296 17.2876C38.8142 18.2721 39.3673 19.6075 39.3673 20.9999V31.4999C39.3673 32.8923 38.8142 34.2276 37.8296 35.2122C36.8451 36.1968 35.5097 36.7499 34.1173 36.7499H23.6173C22.2249 36.7499 20.8896 36.1968 19.905 35.2122C18.9204 34.2276 18.3673 32.8923 18.3673 31.4999L18.3699 28.8093ZM31.4241 18.3749C31.1267 21.0386 29.9324 23.5219 28.0372 25.4171C26.142 27.3123 23.6586 28.5067 20.9949 28.804V31.4999C20.9949 32.1961 21.2715 32.8638 21.7638 33.356C22.2561 33.8483 22.9238 34.1249 23.6199 34.1249H34.1199C34.8161 34.1249 35.4838 33.8483 35.9761 33.356C36.4684 32.8638 36.7449 32.1961 36.7449 31.4999V20.9999C36.7449 20.3037 36.4684 19.636 35.9761 19.1437C35.4838 18.6515 34.8161 18.3749 34.1199 18.3749H31.4241ZM28.7781 18.3749H23.6199C22.9238 18.3749 22.2561 18.6515 21.7638 19.1437C21.2715 19.636 20.9949 20.3037 20.9949 20.9999V26.158C22.9587 25.875 24.7781 24.9639 26.181 23.561C27.584 22.1581 28.4951 20.3387 28.7781 18.3749Z" fill="#680E12"/>
</svg>
